<svg width="16" height="17" viewBox="0 0 16 17" fill="none" xmlns="http://www.w3.org/2000/svg">
<path d="M8 10.1455L3.63902 6.10381C3.60387 6.07053 3.56215 6.04423 3.51626 6.02641C3.47037 6.00859 3.42122 5.99962 3.37167 6.00001C3.32212 6.0004 3.27314 6.01015 3.22756 6.02869C3.18199 6.04723 3.14073 6.0742 3.10617 6.10802C3.07161 6.14185 3.04444 6.18187 3.02623 6.22576C3.00802 6.26966 2.99912 6.31656 3.00007 6.36375C3.00101 6.41094 3.01177 6.45748 3.03173 6.50068C3.05168 6.54389 3.08043 6.58289 3.11632 6.61544L7.73865 10.8989C7.80862 10.9637 7.90238 11 8 11C8.09762 11 8.19138 10.9637 8.26135 10.8989L12.8837 6.61544C12.9196 6.58289 12.9483 6.54389 12.9683 6.50068C12.9882 6.45748 12.999 6.41094 12.9999 6.36375C13.0009 6.31656 12.992 6.26966 12.9738 6.22576C12.9556 6.18187 12.9284 6.14185 12.8938 6.10802C12.8593 6.0742 12.818 6.04723 12.7724 6.02869C12.7269 6.01015 12.6779 6.0004 12.6283 6.00001C12.5788 5.99962 12.5296 6.00859 12.4837 6.02641C12.4379 6.04423 12.3961 6.07053 12.361 6.10381L8 10.1455Z" fill="#050505"/>
</svg>
