<svg width="16" height="17" viewBox="0 0 16 17" fill="none" xmlns="http://www.w3.org/2000/svg">
<path d="M9.64548 8.5L5.60381 12.861C5.57053 12.8961 5.54423 12.9379 5.52641 12.9837C5.50859 13.0296 5.49962 13.0788 5.50001 13.1283C5.5004 13.1779 5.51015 13.2269 5.52869 13.2724C5.54723 13.318 5.5742 13.3593 5.60802 13.3938C5.64185 13.4284 5.68187 13.4556 5.72576 13.4738C5.76966 13.492 5.81656 13.5009 5.86375 13.4999C5.91094 13.499 5.95748 13.4882 6.00068 13.4683C6.04389 13.4483 6.08289 13.4196 6.11544 13.3837L10.3989 8.76135C10.4637 8.69138 10.5 8.59762 10.5 8.5C10.5 8.40238 10.4637 8.30862 10.3989 8.23865L6.11544 3.61632C6.08289 3.58043 6.04389 3.55168 6.00068 3.53172C5.95748 3.51177 5.91094 3.50101 5.86375 3.50007C5.81656 3.49912 5.76966 3.50802 5.72576 3.52623C5.68187 3.54444 5.64185 3.57161 5.60802 3.60617C5.5742 3.64073 5.54723 3.68199 5.52869 3.72756C5.51015 3.77314 5.5004 3.82212 5.50001 3.87167C5.49962 3.92122 5.50859 3.97037 5.52641 4.01626C5.54423 4.06215 5.57053 4.10387 5.60381 4.13902L9.64548 8.5Z" fill="#B0864A"/>
</svg>
