<svg width="19" height="27" viewBox="0 0 19 27" fill="none" xmlns="http://www.w3.org/2000/svg">
<path d="M18.9992 9.22544C18.9992 9.20529 18.9992 9.18514 18.9992 9.16625C18.9992 9.1461 18.9992 9.12595 18.9992 9.10705C18.9992 9.08816 18.9992 9.06675 18.9992 9.04786C18.9992 9.02771 18.9992 9.00882 18.998 8.98867C18.998 8.96852 18.998 8.94962 18.9967 8.92947C18.9967 8.90932 18.9955 8.89043 18.9942 8.87028C18.9942 8.85013 18.9929 8.83123 18.9917 8.81108C18.9917 8.79093 18.9904 8.77204 18.9891 8.75189C18.9891 8.73174 18.9866 8.71285 18.9853 8.6927C18.9853 8.67254 18.9828 8.65365 18.9815 8.6335C18.9815 8.61335 18.979 8.59446 18.9777 8.57431C18.9765 8.55416 18.9752 8.53526 18.9739 8.51511C18.9727 8.49496 18.9714 8.47607 18.9689 8.45718C18.9676 8.43829 18.9651 8.41813 18.9638 8.39924C18.9626 8.38035 18.96 8.3602 18.9588 8.34131C18.9575 8.32242 18.955 8.30227 18.9524 8.28338C18.9499 8.26448 18.9487 8.24433 18.9461 8.22544C18.9436 8.20655 18.9423 8.1864 18.9398 8.16751C18.9373 8.14861 18.9348 8.12846 18.9335 8.10957C18.9322 8.09068 18.9284 8.07053 18.9259 8.05164C18.9234 8.03275 18.9209 8.01259 18.9183 7.9937C18.9158 7.97481 18.9133 7.95592 18.9107 7.93577C18.9082 7.91562 18.9057 7.89799 18.9019 7.87783C18.8994 7.85894 18.8956 7.84005 18.893 7.8199C18.8905 7.80101 18.8867 7.78212 18.8842 7.76322C18.8817 7.74433 18.8778 7.72544 18.8753 7.70655C18.8728 7.68766 18.869 7.66877 18.8652 7.64987C18.8614 7.63098 18.8589 7.61209 18.8551 7.5932C18.8513 7.57431 18.8488 7.55542 18.845 7.53653C18.8412 7.51763 18.8374 7.49874 18.8349 7.47985C18.8323 7.46096 18.8273 7.44206 18.8235 7.42317C18.8197 7.40428 18.8159 7.38539 18.8121 7.3665C18.8083 7.34761 18.8045 7.32871 18.8007 7.30982C18.7969 7.29093 18.7931 7.27204 18.7881 7.25315C18.783 7.23426 18.7792 7.21537 18.7754 7.19773C18.7716 7.17884 18.7666 7.15995 18.7628 7.14232C18.759 7.12469 18.7539 7.10453 18.7501 7.0869C18.7463 7.06801 18.7413 7.05038 18.7362 7.03149C18.7312 7.01259 18.7274 6.99496 18.7223 6.97607C18.7173 6.95718 18.7135 6.93955 18.7084 6.92065C18.7034 6.90176 18.6983 6.88413 18.6945 6.86524C18.6895 6.84635 18.6844 6.82871 18.6793 6.80982C18.6743 6.79093 18.6692 6.7733 18.6642 6.75441C18.6591 6.73552 18.6541 6.71788 18.649 6.69899C18.6439 6.68136 18.6389 6.66247 18.6338 6.64484C18.6288 6.6272 18.6237 6.60831 18.6174 6.59068C18.6123 6.57305 18.606 6.55416 18.6009 6.53653C18.5959 6.51889 18.5896 6.5 18.5845 6.48237C18.5795 6.46473 18.5731 6.44584 18.5668 6.42821C18.5605 6.41058 18.5554 6.39169 18.5491 6.37406C18.5428 6.35642 18.5377 6.33753 18.5314 6.3199C18.5251 6.30227 18.52 6.28463 18.5137 6.26574C18.5074 6.24811 18.501 6.23048 18.4947 6.21159C18.4884 6.19395 18.4821 6.17632 18.4758 6.15869C18.4694 6.14106 18.4631 6.12343 18.4568 6.10579C18.4505 6.08816 18.4442 6.07053 18.4378 6.0529C18.4315 6.03527 18.4252 6.01763 18.4176 6C18.41 5.98237 18.4049 5.96473 18.3974 5.9471C18.391 5.92947 18.3835 5.91184 18.3771 5.89421C18.3708 5.87657 18.3632 5.85894 18.3569 5.84131C18.3506 5.82368 18.343 5.80605 18.3354 5.78841C18.3278 5.77078 18.3215 5.75315 18.3139 5.73678C18.3063 5.7204 18.3 5.70151 18.2924 5.68514C18.2848 5.66877 18.2785 5.65113 18.2709 5.6335C18.2633 5.61587 18.2557 5.5995 18.2482 5.58186C18.2406 5.56423 18.233 5.54786 18.2254 5.53023C18.2178 5.51259 18.2102 5.49622 18.2026 5.47859C18.1951 5.46096 18.1875 5.44459 18.1799 5.42695C18.1723 5.40932 18.1647 5.39295 18.1571 5.37657C18.1495 5.3602 18.1419 5.34257 18.1331 5.3262C18.1255 5.30982 18.1167 5.29219 18.1091 5.27582C18.1015 5.25945 18.0926 5.24181 18.085 5.22544C18.0775 5.20907 18.0686 5.19144 18.061 5.17506C18.0534 5.15869 18.0446 5.14106 18.0357 5.12468C18.0269 5.10831 18.0193 5.09194 18.0104 5.07431C18.0016 5.05793 17.994 5.04156 17.9852 5.02393C17.9763 5.00756 17.9675 4.99118 17.9599 4.97481C17.951 4.95844 17.9422 4.94207 17.9333 4.92569C17.9245 4.90932 17.9156 4.89295 17.9068 4.87657C17.8979 4.8602 17.8891 4.84383 17.8802 4.82746C17.8714 4.81108 17.8625 4.79471 17.8537 4.77834C17.8448 4.76196 17.836 4.74559 17.8271 4.72922C17.8183 4.71285 17.8094 4.69647 17.7993 4.6801C17.7904 4.66373 17.7803 4.64736 17.7715 4.63224C17.7626 4.61587 17.7525 4.5995 17.7437 4.58438C17.7348 4.56801 17.7247 4.5529 17.7158 4.53652C17.707 4.52015 17.6969 4.50504 17.6867 4.48867C17.6766 4.47229 17.6678 4.45718 17.6577 4.44081C17.6475 4.42443 17.6387 4.40932 17.6286 4.39295C17.6185 4.37657 17.6096 4.36146 17.5995 4.34509C17.5894 4.32872 17.5793 4.3136 17.5704 4.29849C17.5616 4.28338 17.5502 4.267 17.5401 4.25189C17.53 4.23677 17.5198 4.2204 17.5097 4.20529C17.4996 4.19018 17.4895 4.1738 17.4794 4.15869C17.4693 4.14358 17.4591 4.1272 17.449 4.11209C17.4389 4.09698 17.4288 4.08186 17.4174 4.06549C17.406 4.04912 17.3972 4.03526 17.3858 4.02015C17.3757 4.00504 17.3643 3.98992 17.3542 3.97481C17.3441 3.9597 17.3327 3.94458 17.3226 3.92947C17.3125 3.91436 17.3011 3.89924 17.291 3.88413C17.2796 3.86902 17.2695 3.8539 17.2581 3.83879C17.2467 3.82368 17.2366 3.80856 17.2252 3.79345C17.2139 3.77834 17.2037 3.76322 17.1924 3.74937C17.181 3.73552 17.1709 3.71914 17.1595 3.70529C17.1481 3.69018 17.1367 3.67632 17.1266 3.66121C17.1152 3.64609 17.1038 3.63224 17.0925 3.61713C17.0811 3.60202 17.0697 3.58816 17.0583 3.57305C17.0469 3.55793 17.0356 3.54408 17.0242 3.52897C17.0128 3.51385 17.0014 3.5 16.99 3.48489C16.9787 3.47103 16.9673 3.45592 16.9559 3.44207C16.9445 3.42821 16.9331 3.4131 16.9205 3.39925C16.9091 3.38539 16.8965 3.37028 16.8851 3.35642C16.8737 3.34257 16.8611 3.32746 16.8497 3.3136C16.8383 3.29975 16.8257 3.28589 16.8143 3.27078C16.8029 3.25693 16.7903 3.24307 16.7789 3.22796C16.7662 3.21411 16.7549 3.20025 16.7422 3.1864C16.7296 3.17254 16.7182 3.15869 16.7056 3.14484C16.6929 3.13098 16.6815 3.11713 16.6689 3.10327C16.6562 3.08942 16.6448 3.07557 16.6322 3.06171C16.6196 3.04786 16.6069 3.034 16.5955 3.02015C16.5829 3.0063 16.5702 2.99244 16.5576 2.97985C16.545 2.966 16.5323 2.95214 16.5197 2.93955C16.507 2.92569 16.4944 2.9131 16.4817 2.89924C16.4691 2.88539 16.4564 2.8728 16.4438 2.85894C16.4312 2.84509 16.4185 2.83249 16.4059 2.81864C16.3932 2.80479 16.3806 2.79219 16.3667 2.77834C16.354 2.76574 16.3414 2.75189 16.3275 2.73929C16.3148 2.7267 16.3009 2.71285 16.2883 2.70025C16.2756 2.68766 16.2617 2.6738 16.2491 2.66121C16.2364 2.64862 16.2225 2.63476 16.2099 2.62217C16.1972 2.60957 16.1833 2.59698 16.1694 2.58312C16.1555 2.57053 16.1429 2.55794 16.129 2.54534C16.115 2.53275 16.1024 2.52015 16.0885 2.50756C16.0746 2.49496 16.0619 2.48237 16.048 2.46977C16.0341 2.45718 16.0215 2.44458 16.0076 2.43199C15.9937 2.4194 15.9798 2.4068 15.9671 2.39421C15.9532 2.38161 15.9393 2.36902 15.9254 2.35768C15.9115 2.34509 15.8976 2.33249 15.8837 2.32116C15.8698 2.30856 15.8558 2.29723 15.8419 2.28463C15.828 2.27204 15.8141 2.26071 15.8002 2.24811C15.7863 2.23552 15.7724 2.22418 15.7585 2.21159C15.7446 2.19899 15.7307 2.18766 15.7167 2.17632C15.7028 2.16499 15.6889 2.15239 15.6738 2.14106C15.6586 2.12972 15.6447 2.11713 15.6308 2.10579C15.6169 2.09446 15.6017 2.08186 15.5878 2.07053C15.5739 2.05919 15.5587 2.04786 15.5448 2.03526C15.5309 2.02267 15.5157 2.01259 15.5018 2.00126C15.4879 1.98992 15.4727 1.97859 15.4575 1.96725C15.4424 1.95592 15.4285 1.94459 15.4133 1.93325C15.3981 1.92192 15.3842 1.91058 15.369 1.89924C15.3539 1.88791 15.3399 1.87657 15.3248 1.86524C15.3096 1.8539 15.2957 1.84257 15.2805 1.83249C15.2653 1.82116 15.2502 1.80982 15.2363 1.79975C15.2223 1.78967 15.2059 1.77834 15.1907 1.767C15.1756 1.75567 15.1604 1.74559 15.1452 1.73426C15.13 1.72292 15.1149 1.71285 15.0997 1.70151C15.0845 1.69018 15.0694 1.6801 15.0542 1.67002C15.039 1.65995 15.0238 1.64861 15.0087 1.63854C14.9935 1.62846 14.9783 1.61713 14.9631 1.60705C14.948 1.59698 14.9328 1.58564 14.9176 1.57557C14.9025 1.56549 14.8873 1.55541 14.8708 1.54408C14.8557 1.534 14.8405 1.52393 14.8241 1.51385C14.8089 1.50378 14.7925 1.4937 14.7773 1.48363C14.7621 1.47355 14.7457 1.46348 14.7305 1.4534C14.7153 1.44332 14.6989 1.43325 14.6837 1.42317C14.6685 1.4131 14.6521 1.40302 14.6369 1.39421C14.6217 1.38539 14.6053 1.37405 14.5889 1.36524C14.5724 1.35516 14.5573 1.34635 14.5408 1.33627C14.5244 1.3262 14.5092 1.31738 14.4928 1.30731C14.4763 1.29723 14.4612 1.28841 14.4447 1.27834C14.4283 1.26826 14.4131 1.25944 14.3967 1.25063C14.3802 1.24181 14.3651 1.23174 14.3486 1.22292C14.3322 1.21411 14.3158 1.20403 14.3006 1.19521C14.2854 1.1864 14.2677 1.17632 14.2513 1.16751C14.2348 1.15869 14.2184 1.14987 14.202 1.14106C14.1855 1.13224 14.1691 1.12343 14.1526 1.11461C14.1362 1.10579 14.1198 1.09698 14.1033 1.08816C14.0869 1.07934 14.0704 1.07053 14.054 1.06171C14.0376 1.0529 14.0211 1.04408 14.0047 1.03526C13.9883 1.02645 13.9718 1.01763 13.9554 1.01008C13.939 1.00126 13.9225 0.993702 13.9048 0.984886C13.8884 0.97607 13.8719 0.968513 13.8542 0.959697C13.8378 0.950881 13.8201 0.943325 13.8036 0.934509C13.7872 0.925692 13.7695 0.918135 13.7531 0.910579C13.7366 0.903022 13.7189 0.894206 13.7025 0.886649C13.6861 0.879092 13.6684 0.870278 13.6519 0.862721C13.6355 0.855165 13.6178 0.847607 13.6013 0.838791C13.5849 0.831235 13.5672 0.823677 13.5495 0.81612C13.5318 0.808564 13.5154 0.801008 13.4976 0.793451C13.4799 0.785895 13.4635 0.778337 13.4458 0.77078C13.4281 0.763224 13.4117 0.755668 13.394 0.748111C13.3763 0.740554 13.3598 0.732997 13.3421 0.72544C13.3244 0.717883 13.308 0.710327 13.2903 0.70403C13.2726 0.696473 13.2549 0.690176 13.2384 0.682619C13.2207 0.675063 13.203 0.668766 13.1866 0.661209C13.1689 0.653652 13.1512 0.647355 13.1335 0.639799C13.1158 0.633501 13.0981 0.625944 13.0804 0.619647C13.0627 0.61335 13.045 0.605793 13.0273 0.599496C13.0096 0.593198 12.9919 0.585643 12.9742 0.579346C12.9565 0.573049 12.9388 0.566751 12.9211 0.559194C12.9034 0.552897 12.8857 0.546599 12.868 0.540301C12.8503 0.534004 12.8326 0.527708 12.8149 0.521411C12.7972 0.515113 12.7795 0.508817 12.7618 0.50252C12.744 0.496222 12.7263 0.489924 12.7074 0.483627C12.6897 0.47733 12.672 0.471032 12.653 0.465995C12.6353 0.459697 12.6176 0.45466 12.5986 0.448362C12.5809 0.442065 12.562 0.437027 12.5443 0.43073C12.5266 0.424433 12.5076 0.419395 12.4899 0.413098C12.4722 0.406801 12.4532 0.401762 12.4355 0.396725C12.4178 0.391687 12.3989 0.385391 12.3812 0.380353C12.3635 0.375315 12.3445 0.369018 12.3268 0.36398C12.3091 0.358942 12.2901 0.353905 12.2724 0.348867C12.2547 0.343829 12.2358 0.33879 12.2168 0.333752C12.1978 0.328715 12.1801 0.323677 12.1611 0.31864C12.1422 0.313602 12.1245 0.308565 12.1055 0.303527C12.0865 0.298489 12.0688 0.293451 12.0499 0.289673C12.0309 0.284635 12.0132 0.280857 11.9942 0.275819C11.9753 0.270781 11.9576 0.267003 11.9386 0.261965C11.9196 0.256927 11.9019 0.253149 11.883 0.248111C11.864 0.243073 11.8463 0.239294 11.8273 0.235516C11.8084 0.231737 11.7894 0.226701 11.7717 0.222922C11.7527 0.219144 11.7338 0.214106 11.7161 0.210327C11.6971 0.206549 11.6781 0.20277 11.6592 0.197732C11.6402 0.193954 11.6212 0.190176 11.6023 0.186397C11.5833 0.182619 11.5643 0.178841 11.5454 0.175063C11.5264 0.171285 11.5074 0.167507 11.4885 0.163728C11.4695 0.15995 11.4505 0.156171 11.4316 0.153653C11.4126 0.149874 11.3936 0.146096 11.3747 0.143577C11.3557 0.139798 11.3367 0.137279 11.3178 0.133501C11.2988 0.129723 11.2798 0.127203 11.2609 0.123425C11.2419 0.119647 11.2229 0.117129 11.204 0.11461C11.185 0.112091 11.166 0.108312 11.1471 0.105793C11.1281 0.103274 11.1091 0.0994968 11.0889 0.0969779C11.0699 0.094459 11.051 0.0919392 11.0307 0.0881608C11.0105 0.0843825 10.9928 0.0831233 10.9726 0.0806045C10.9536 0.0780856 10.9334 0.075567 10.9144 0.0730481C10.8954 0.0705292 10.8752 0.0680106 10.8562 0.0654917C10.8373 0.0629728 10.817 0.0604536 10.7981 0.0591941C10.7791 0.0579347 10.7589 0.0554154 10.7399 0.0528965C10.7209 0.0503776 10.7007 0.0491178 10.6818 0.0465989C10.6628 0.04408 10.6425 0.0428202 10.6236 0.0403013C10.6046 0.0390418 10.5844 0.0365238 10.5654 0.0352643C10.5465 0.0340049 10.5262 0.0314868 10.5073 0.0302274C10.4883 0.0289679 10.4681 0.026448 10.4491 0.0251885C10.4289 0.0239291 10.4099 0.0226698 10.3897 0.0214103C10.3694 0.0201509 10.3505 0.0188916 10.3302 0.0176322C10.31 0.0176322 10.291 0.0151134 10.2708 0.013854C10.2506 0.013854 10.2316 0.0113352 10.2114 0.0100758C10.1911 0.0100758 10.1722 0.00755637 10.1519 0.00755637C10.1317 0.00755637 10.1127 0.00629638 10.0925 0.00503694C10.0723 0.00503694 10.0533 0.00377888 10.0331 0.00251943C10.0129 0.00251943 9.99388 0.0025182 9.97365 0.00125875C9.95342 0.00125875 9.93446 0.00125945 9.91423 0C9.894 0 9.87503 0 9.8548 0C9.83457 0 9.81434 0 9.79538 0C9.77515 0 9.7549 0 9.73594 0C9.71697 0 9.69548 0 9.67651 0C9.65628 0 9.63605 0 9.61709 0C9.59812 0 9.57663 0 9.55766 0C9.53743 0 9.51847 -6.91806e-07 9.49824 0.00125875C9.47801 0.00125875 9.45903 0.00125998 9.4388 0.00251943C9.41857 0.00251943 9.3996 0.00377749 9.37937 0.00503694C9.35914 0.00503694 9.34018 0.00629692 9.31995 0.00755637C9.29972 0.00755637 9.28075 0.00881635 9.26052 0.0100758C9.24029 0.0100758 9.22131 0.0125945 9.20108 0.013854C9.18085 0.013854 9.16189 0.0163727 9.14166 0.0176322C9.12142 0.0176322 9.10246 0.0201509 9.08223 0.0214103C9.062 0.0226698 9.04304 0.0239291 9.02281 0.0251885C9.00257 0.026448 8.9836 0.0277085 8.96463 0.0302274C8.94566 0.0314868 8.92544 0.0340049 8.90647 0.0352643C8.8875 0.0365238 8.86728 0.0390418 8.84831 0.0403013C8.82935 0.0415607 8.8091 0.04408 8.79014 0.0465989C8.77117 0.0491178 8.75095 0.0503776 8.73198 0.0528965C8.71301 0.0554154 8.69279 0.0566752 8.67382 0.0591941C8.65485 0.061713 8.63461 0.0642323 8.61564 0.0654917C8.59668 0.0667512 8.57645 0.0705292 8.55748 0.0730481C8.53852 0.075567 8.51829 0.0780856 8.49933 0.0806045C8.48036 0.0831233 8.46138 0.0856419 8.44115 0.0881608C8.42092 0.0906797 8.40322 0.0931995 8.38299 0.0969779C8.36402 0.0994968 8.34506 0.103274 8.32483 0.105793C8.30587 0.108312 8.28689 0.112091 8.26792 0.11461C8.24896 0.117129 8.23 0.120906 8.21103 0.123425C8.19206 0.125944 8.1731 0.129723 8.15414 0.133501C8.13517 0.137279 8.11619 0.139798 8.09723 0.143577C8.07826 0.147355 8.0593 0.149874 8.04033 0.153653C8.02137 0.157431 8.00239 0.161209 7.98342 0.163728C7.96446 0.166247 7.9455 0.171285 7.92653 0.175063C7.90756 0.178841 7.8886 0.182619 7.86964 0.186397C7.85067 0.190176 7.83169 0.193954 7.81273 0.197732C7.79376 0.20151 7.7748 0.205289 7.75583 0.210327C7.73687 0.215365 7.71789 0.219144 7.70019 0.222922C7.68122 0.226701 7.66226 0.231737 7.64456 0.235516C7.6256 0.239294 7.60662 0.244333 7.58892 0.248111C7.57122 0.251889 7.55226 0.256927 7.53329 0.261965C7.51432 0.267003 7.49661 0.270781 7.47765 0.275819C7.45868 0.280857 7.44099 0.284635 7.42202 0.289673C7.40305 0.294711 7.38534 0.299749 7.36638 0.303527C7.34741 0.308565 7.32971 0.313602 7.31075 0.31864C7.29178 0.323677 7.27407 0.328715 7.2551 0.333752C7.23614 0.33879 7.21844 0.343829 7.19948 0.348867C7.18177 0.353905 7.1628 0.358942 7.1451 0.36398C7.1274 0.369018 7.10844 0.374056 7.09074 0.380353C7.07303 0.385391 7.05406 0.391687 7.03636 0.396725C7.01866 0.401762 6.9997 0.40806 6.982 0.413098C6.96429 0.418136 6.94532 0.424433 6.92762 0.43073C6.90992 0.437027 6.89096 0.442065 6.87326 0.448362C6.85555 0.45466 6.83784 0.459697 6.81888 0.465995C6.80118 0.472292 6.78347 0.47733 6.7645 0.483627C6.7468 0.489924 6.72911 0.496222 6.7114 0.50252C6.6937 0.508817 6.67599 0.515113 6.65829 0.521411C6.64059 0.527708 6.6229 0.534004 6.6052 0.540301C6.58749 0.546599 6.56979 0.552897 6.55208 0.559194C6.53438 0.565491 6.51667 0.571789 6.49897 0.579346C6.48127 0.586903 6.46358 0.591939 6.44587 0.599496C6.42817 0.607052 6.41046 0.61335 6.39276 0.619647C6.37506 0.625944 6.35735 0.633501 6.33965 0.639799C6.32195 0.646096 6.30426 0.653652 6.28655 0.661209C6.26885 0.668766 6.25114 0.675063 6.23471 0.682619C6.21827 0.690176 6.1993 0.696473 6.18286 0.70403C6.16642 0.711586 6.14873 0.717883 6.13103 0.72544C6.11333 0.732997 6.09689 0.740554 6.07918 0.748111C6.06148 0.755668 6.04504 0.763224 6.02734 0.77078C6.00963 0.778337 5.99319 0.785895 5.97549 0.793451C5.95779 0.801008 5.94136 0.808564 5.92366 0.81612C5.90596 0.823677 5.88952 0.831235 5.87181 0.838791C5.85538 0.846348 5.83767 0.853905 5.82123 0.862721C5.80479 0.870278 5.78709 0.879092 5.77065 0.886649C5.75421 0.894206 5.73652 0.903022 5.72009 0.910579C5.70365 0.918135 5.68594 0.926952 5.66951 0.934509C5.65307 0.942065 5.63536 0.950881 5.61893 0.959697C5.60249 0.968513 5.58605 0.97607 5.56834 0.984886C5.55191 0.993702 5.53547 1.00126 5.51776 1.01008C5.50133 1.01889 5.48489 1.02771 5.46845 1.03526C5.45201 1.04282 5.43559 1.0529 5.41915 1.06171C5.40271 1.07053 5.38627 1.07934 5.36983 1.08816C5.3534 1.09698 5.33696 1.10579 5.32052 1.11461C5.30408 1.12343 5.28764 1.13224 5.2712 1.14106C5.25477 1.14987 5.23833 1.15869 5.22189 1.16751C5.20545 1.17632 5.18901 1.18514 5.17257 1.19521C5.15614 1.20403 5.1397 1.21411 5.12452 1.22292C5.10809 1.23174 5.09165 1.24181 5.07647 1.25063C5.06004 1.25944 5.04486 1.26952 5.02843 1.27834C5.01199 1.28715 4.99681 1.29723 4.98038 1.30731C4.96394 1.31738 4.94876 1.3262 4.93233 1.33627C4.91589 1.34635 4.90071 1.35516 4.88428 1.36524C4.86784 1.37531 4.85267 1.38413 4.83623 1.39421C4.81979 1.40428 4.80462 1.41436 4.78944 1.42317C4.77427 1.43199 4.75783 1.44332 4.74266 1.4534C4.72749 1.46348 4.71105 1.47355 4.69588 1.48363C4.6807 1.4937 4.66427 1.50378 4.64909 1.51385C4.63392 1.52393 4.61748 1.534 4.60231 1.54408C4.58714 1.55416 4.57196 1.56423 4.55553 1.57557C4.53909 1.5869 4.52518 1.59572 4.51001 1.60705C4.49483 1.61713 4.47966 1.62846 4.46449 1.63854C4.44932 1.64861 4.43414 1.65995 4.41897 1.67002C4.4038 1.6801 4.38863 1.69144 4.37345 1.70151C4.35828 1.71285 4.34311 1.72292 4.32794 1.73426C4.31276 1.74559 4.29759 1.75567 4.28242 1.767C4.26724 1.77834 4.25206 1.78841 4.23688 1.79975C4.22171 1.81108 4.20654 1.82116 4.19263 1.83249C4.17746 1.84383 4.16355 1.85516 4.14838 1.86524C4.13321 1.87531 4.1193 1.88791 4.10413 1.89924C4.08895 1.91058 4.07505 1.92192 4.05987 1.93325C4.0447 1.94459 4.03078 1.95592 4.01561 1.96725C4.00043 1.97859 3.98653 1.98992 3.97135 2.00126C3.95745 2.01259 3.94228 2.02393 3.92837 2.03526C3.91446 2.0466 3.89929 2.05793 3.88538 2.07053C3.87147 2.08186 3.85629 2.09446 3.84238 2.10579C3.82847 2.11713 3.8133 2.12972 3.79939 2.14106C3.78548 2.15239 3.77158 2.16499 3.75641 2.17632C3.7425 2.18766 3.72858 2.20025 3.71467 2.21159C3.70076 2.22418 3.68686 2.23552 3.67295 2.24811C3.65904 2.26071 3.64514 2.27204 3.63123 2.28463C3.61732 2.29723 3.6034 2.30856 3.58949 2.32116C3.57558 2.33375 3.56168 2.34509 3.54777 2.35768C3.53386 2.37028 3.51996 2.38287 3.50605 2.39421C3.49214 2.4068 3.47822 2.4194 3.46558 2.43199C3.45167 2.44458 3.43777 2.45718 3.42512 2.46977C3.41121 2.48237 3.39856 2.49496 3.38465 2.50756C3.37074 2.52015 3.35811 2.53275 3.3442 2.54534C3.33029 2.55794 3.31764 2.57053 3.30373 2.58312C3.28982 2.59572 3.27718 2.60831 3.26327 2.62217C3.25063 2.63476 3.23671 2.64736 3.22407 2.66121C3.21142 2.6738 3.19752 2.68766 3.18488 2.70025C3.17223 2.71285 3.15832 2.7267 3.14567 2.73929C3.13303 2.75189 3.11913 2.76574 3.10648 2.77834C3.09384 2.79093 3.08119 2.80479 3.06728 2.81864C3.05463 2.83249 3.042 2.84509 3.02935 2.85894C3.01671 2.8728 3.00406 2.88539 2.99141 2.89924C2.97877 2.9131 2.96613 2.92569 2.95349 2.93955C2.94084 2.9534 2.92819 2.966 2.91555 2.97985C2.9029 2.9937 2.89025 3.00756 2.87761 3.02015C2.86497 3.034 2.85233 3.04786 2.84095 3.06171C2.82831 3.07557 2.81566 3.08942 2.80428 3.10327C2.7929 3.11713 2.78025 3.13098 2.7676 3.14484C2.75496 3.15869 2.74359 3.17254 2.73095 3.1864C2.7183 3.20025 2.70692 3.21411 2.69427 3.22796C2.68163 3.24181 2.67024 3.25567 2.65886 3.27078C2.64748 3.28463 2.63484 3.29849 2.62346 3.3136C2.61208 3.32746 2.59944 3.34257 2.58806 3.35642C2.57668 3.37028 2.56404 3.38539 2.55266 3.39925C2.54128 3.4131 2.52863 3.42821 2.51725 3.44207C2.50587 3.45592 2.49449 3.47103 2.48311 3.48489C2.47173 3.49874 2.46036 3.51385 2.44898 3.52897C2.4376 3.54408 2.42622 3.55793 2.41484 3.57305C2.40346 3.58816 2.39207 3.60202 2.38069 3.61713C2.36931 3.63224 2.35793 3.64609 2.34655 3.66121C2.33517 3.67632 2.32379 3.69018 2.31367 3.70529C2.30229 3.7204 2.29091 3.73552 2.2808 3.74937C2.27068 3.76322 2.2593 3.7796 2.24792 3.79345C2.23654 3.80856 2.22642 3.82368 2.21504 3.83879C2.20366 3.8539 2.19355 3.86902 2.18217 3.88413C2.17079 3.89924 2.16067 3.91436 2.15056 3.92947C2.14044 3.94458 2.12906 3.9597 2.11895 3.97481C2.10883 3.98992 2.09745 4.00504 2.08733 4.02015C2.07722 4.03526 2.06584 4.05038 2.05572 4.06549C2.04561 4.0806 2.03549 4.09572 2.02411 4.11209C2.014 4.1272 2.00388 4.14358 1.99377 4.15869C1.98365 4.1738 1.97354 4.19018 1.96342 4.20529C1.95331 4.2204 1.94319 4.23677 1.93308 4.25189C1.92296 4.267 1.91285 4.28338 1.90273 4.29849C1.89262 4.3136 1.8825 4.32997 1.87239 4.34509C1.86227 4.3602 1.85216 4.37657 1.84331 4.39295C1.83445 4.40932 1.82434 4.42443 1.81423 4.44081C1.80411 4.45718 1.79526 4.47229 1.78515 4.48867C1.77503 4.50504 1.76617 4.52015 1.75605 4.53652C1.74594 4.5529 1.73709 4.56801 1.72824 4.58438C1.71939 4.60075 1.70927 4.61587 1.70042 4.63224C1.69157 4.64861 1.68146 4.66499 1.67261 4.6801C1.66376 4.69647 1.65363 4.71285 1.64478 4.72922C1.63593 4.74559 1.62708 4.76196 1.61697 4.77834C1.60812 4.79471 1.59927 4.81108 1.59042 4.82746C1.58157 4.84383 1.57272 4.8602 1.56387 4.87657C1.55502 4.89295 1.54616 4.90932 1.53731 4.92569C1.52845 4.94207 1.51961 4.95844 1.51076 4.97481C1.50191 4.99118 1.49305 5.00756 1.48546 5.02393C1.47661 5.0403 1.46903 5.05667 1.46018 5.07431C1.45133 5.09068 1.44375 5.10705 1.43489 5.12468C1.42604 5.14106 1.41845 5.15869 1.4096 5.17506C1.40074 5.19144 1.39317 5.20907 1.38558 5.22544C1.37799 5.24181 1.36913 5.25945 1.36155 5.27582C1.35396 5.29219 1.34512 5.30982 1.33753 5.3262C1.32994 5.34257 1.32235 5.3602 1.3135 5.37657C1.30591 5.39295 1.29833 5.41058 1.29075 5.42695C1.28316 5.44459 1.27557 5.46096 1.26798 5.47859C1.26039 5.49622 1.25281 5.51259 1.24523 5.53023C1.23764 5.54786 1.23005 5.56423 1.22246 5.58186C1.21487 5.5995 1.20728 5.61587 1.20096 5.6335C1.19337 5.65113 1.1858 5.66751 1.17947 5.68514C1.17315 5.70277 1.16556 5.7204 1.15797 5.73678C1.15039 5.75315 1.14407 5.77204 1.13649 5.78841C1.1289 5.80479 1.12257 5.82368 1.11499 5.84131C1.10866 5.85894 1.10107 5.87657 1.09475 5.89421C1.08843 5.91184 1.08084 5.92947 1.07452 5.9471C1.06819 5.96473 1.06062 5.98237 1.0543 6C1.04797 6.01763 1.04165 6.03527 1.03406 6.0529C1.02647 6.07053 1.02141 6.08816 1.01509 6.10579C1.00877 6.12343 1.00244 6.14106 0.996121 6.15869C0.989799 6.17632 0.983489 6.19395 0.977167 6.21159C0.970845 6.22922 0.964519 6.24685 0.958197 6.26574C0.951875 6.28337 0.945551 6.30101 0.940493 6.3199C0.934171 6.33753 0.929111 6.35516 0.922789 6.37406C0.916467 6.39295 0.911407 6.41058 0.905085 6.42821C0.898763 6.44584 0.893703 6.46473 0.887381 6.48237C0.881059 6.5 0.876001 6.51889 0.870943 6.53653C0.865885 6.55416 0.859562 6.57305 0.854504 6.59068C0.849447 6.60831 0.843124 6.6272 0.838066 6.64484C0.833008 6.66247 0.827951 6.68136 0.822893 6.69899C0.817836 6.71662 0.812779 6.73552 0.807721 6.75441C0.802663 6.7733 0.797606 6.79093 0.792548 6.80982C0.78749 6.82871 0.782433 6.84635 0.777375 6.86524C0.772318 6.88413 0.767262 6.90176 0.763468 6.92065C0.758411 6.93955 0.754619 6.95718 0.749561 6.97607C0.744504 6.99496 0.740712 7.01259 0.735654 7.03149C0.730597 7.05038 0.726805 7.06801 0.721747 7.0869C0.717954 7.10579 0.712899 7.12469 0.709106 7.14232C0.705313 7.15995 0.700243 7.1801 0.696449 7.19773C0.692656 7.21663 0.687601 7.23552 0.683808 7.25315C0.680015 7.27204 0.676224 7.29093 0.671167 7.30982C0.667373 7.32871 0.663584 7.34761 0.659791 7.3665C0.655998 7.38539 0.652193 7.40428 0.6484 7.42317C0.644607 7.44206 0.640818 7.46096 0.637024 7.47985C0.633231 7.49874 0.629443 7.51763 0.626914 7.53653C0.623121 7.55542 0.619318 7.57431 0.616789 7.5932C0.612996 7.61209 0.610472 7.63098 0.606679 7.64987C0.602886 7.66877 0.600362 7.68766 0.596569 7.70655C0.592776 7.72544 0.590238 7.74433 0.587709 7.76322C0.58518 7.78212 0.581394 7.80101 0.578865 7.8199C0.576336 7.83879 0.572534 7.85768 0.570005 7.87783C0.567476 7.89673 0.564954 7.91562 0.561161 7.93577C0.557368 7.95592 0.556096 7.97355 0.553567 7.9937C0.551038 8.01259 0.548517 8.03275 0.545988 8.05164C0.543459 8.07053 0.540923 8.09068 0.538394 8.10957C0.535865 8.12846 0.533346 8.14861 0.532081 8.16751C0.530817 8.1864 0.528282 8.20655 0.525753 8.22544C0.523224 8.24433 0.521969 8.26448 0.51944 8.28338C0.516911 8.30227 0.51564 8.32242 0.513112 8.34131C0.511847 8.3602 0.509313 8.38035 0.508049 8.39924C0.506784 8.41813 0.504266 8.43829 0.503002 8.45718C0.501737 8.47607 0.499203 8.49622 0.497939 8.51511C0.496674 8.53401 0.495406 8.55416 0.494142 8.57431C0.492877 8.59446 0.491609 8.61335 0.490345 8.6335C0.490345 8.65365 0.487828 8.67254 0.486563 8.6927C0.486563 8.71285 0.484031 8.73174 0.482766 8.75189C0.482766 8.77204 0.480235 8.79093 0.480235 8.81108C0.480235 8.83123 0.478968 8.85013 0.477704 8.87028C0.477704 8.89043 0.476437 8.90932 0.475172 8.92947C0.475172 8.94962 0.475171 8.96852 0.473906 8.98867C0.473906 9.00882 0.473921 9.02771 0.472656 9.04786C0.472656 9.06801 0.472656 9.0869 0.472656 9.10705C0.472656 9.12721 0.472656 9.14736 0.472656 9.16625C0.472656 9.1864 0.472656 9.20655 0.472656 9.22544C0.472656 9.24433 0.472656 9.26574 0.472656 9.28463C0.472656 9.30478 0.472656 9.32493 0.472656 9.34383C0.472656 9.36272 0.472656 9.38413 0.472656 9.40302C0.472656 9.42317 0.472642 9.44206 0.473906 9.46222C0.473906 9.48237 0.473908 9.50126 0.475172 9.52141C0.475172 9.54156 0.476439 9.56045 0.477704 9.5806C0.477704 9.60075 0.47897 9.61965 0.480235 9.6398C0.480235 9.65995 0.481502 9.67884 0.482766 9.69899C0.482766 9.71914 0.485299 9.73804 0.486563 9.75819C0.486563 9.77834 0.48908 9.79723 0.490345 9.81738C0.490345 9.83753 0.492877 9.85642 0.494142 9.87657C0.495406 9.89673 0.496674 9.91562 0.497939 9.93577C0.499203 9.95466 0.500473 9.97481 0.503002 9.9937C0.50553 10.0126 0.506784 10.0327 0.508049 10.0516C0.509313 10.0705 0.511847 10.0907 0.513112 10.1096C0.514376 10.1285 0.516911 10.1486 0.51944 10.1675C0.521969 10.1864 0.523224 10.2065 0.525753 10.2254C0.528282 10.2443 0.529552 10.2645 0.532081 10.2834C0.53461 10.3023 0.53713 10.3224 0.538394 10.3413C0.540923 10.3602 0.543459 10.3804 0.545988 10.3992C0.548517 10.4181 0.551038 10.4383 0.553567 10.4572C0.556096 10.4761 0.558632 10.495 0.561161 10.5151C0.56369 10.5353 0.566212 10.5529 0.570005 10.573C0.572534 10.5919 0.575072 10.6108 0.578865 10.631C0.581394 10.6499 0.58518 10.6688 0.587709 10.6877C0.590238 10.7065 0.59404 10.7254 0.596569 10.7443C0.599098 10.7632 0.602886 10.7821 0.606679 10.801C0.610472 10.8199 0.612996 10.8388 0.616789 10.8577C0.620582 10.8766 0.623121 10.8955 0.626914 10.9144C0.630708 10.9332 0.634495 10.9521 0.637024 10.971C0.640818 10.9899 0.644607 11.0088 0.6484 11.0277C0.652193 11.0466 0.655998 11.0655 0.659791 11.0844C0.663584 11.1033 0.667373 11.1222 0.671167 11.1411C0.67496 11.16 0.67875 11.1788 0.683808 11.1977C0.687601 11.2166 0.692656 11.2355 0.696449 11.2531C0.700243 11.272 0.705313 11.2909 0.709106 11.3086C0.712899 11.3262 0.717954 11.3463 0.721747 11.364C0.725541 11.3829 0.730597 11.4005 0.735654 11.4194C0.740712 11.4383 0.744504 11.4559 0.749561 11.4748C0.754619 11.4937 0.758411 11.5113 0.763468 11.5302C0.768526 11.5491 0.773582 11.5668 0.777375 11.5856C0.782433 11.6045 0.78749 11.6222 0.792548 11.6411C0.797606 11.66 0.802663 11.6776 0.807721 11.6965C0.812779 11.7154 0.817836 11.733 0.822893 11.7519C0.827951 11.7695 0.833008 11.7884 0.838066 11.806C0.843124 11.8237 0.848182 11.8426 0.854504 11.8602C0.859562 11.8778 0.865885 11.8967 0.870943 11.9144C0.876001 11.932 0.882323 11.9509 0.887381 11.9685C0.892439 11.9861 0.898763 12.005 0.905085 12.0227C0.911407 12.0403 0.916467 12.0592 0.922789 12.0768C0.929111 12.0945 0.934171 12.1133 0.940493 12.131C0.946815 12.1486 0.951875 12.1662 0.958197 12.1851C0.964519 12.2028 0.970845 12.2204 0.977167 12.2393C0.983489 12.2569 0.989799 12.2746 0.996121 12.2922C1.00244 12.3098 1.00877 12.3275 1.01509 12.3451C1.02141 12.3627 1.02774 12.3804 1.03406 12.398C1.04038 12.4156 1.04671 12.4332 1.0543 12.4509C1.06062 12.4685 1.06693 12.4861 1.07452 12.5038C1.08084 12.5214 1.08843 12.539 1.09475 12.5567C1.10107 12.5743 1.10866 12.5919 1.11499 12.6096C1.12131 12.6272 1.1289 12.6448 1.13649 12.6625C1.14407 12.6801 1.15039 12.6977 1.15797 12.7141C1.16556 12.7305 1.17189 12.7494 1.17947 12.7657C1.18706 12.7821 1.19337 12.7997 1.20096 12.8174C1.20855 12.835 1.21614 12.8514 1.22246 12.869C1.23005 12.8867 1.23764 12.903 1.24523 12.9207C1.25281 12.9383 1.26039 12.9547 1.26798 12.9723C1.27557 12.9899 1.28316 13.0063 1.29075 13.0239C1.29833 13.0416 1.30591 13.0579 1.3135 13.0756C1.32108 13.0919 1.32868 13.1096 1.33753 13.1259C1.34512 13.1423 1.35396 13.16 1.36155 13.1763C1.36913 13.1927 1.37799 13.2103 1.38558 13.2267C1.39317 13.2431 1.40201 13.2607 1.4096 13.2771C1.41718 13.2935 1.42604 13.3111 1.43489 13.3275C1.44375 13.3438 1.45133 13.3602 1.46018 13.3778C1.46903 13.3942 1.47661 13.4106 1.48546 13.4282C1.49431 13.4458 1.50317 13.461 1.51076 13.4773C1.51961 13.4937 1.52845 13.5101 1.53731 13.5264C1.54616 13.5428 1.55502 13.5592 1.56387 13.5756C1.57272 13.5919 1.58157 13.6083 1.59042 13.6247C1.59927 13.6411 1.60812 13.6574 1.61697 13.6738C1.62582 13.6902 1.63466 13.7065 1.64478 13.7229C1.65363 13.7393 1.66249 13.7557 1.67261 13.772C1.68146 13.7884 1.69157 13.8048 1.70042 13.8199C1.70927 13.8363 1.71939 13.8526 1.72824 13.8678C1.73709 13.8841 1.7472 13.8992 1.75605 13.9156C1.7649 13.932 1.77503 13.9471 1.78515 13.9635C1.79526 13.9798 1.80411 13.995 1.81423 14.0113C1.82434 14.0277 1.83319 14.0428 1.84331 14.0592C1.85342 14.0756 1.86227 14.0907 1.87239 14.1071C1.8825 14.1222 1.89262 14.1385 1.90273 14.1537C1.91285 14.1688 1.92296 14.1851 1.93308 14.2002C1.94319 14.2154 1.95331 14.2317 1.96342 14.2469C1.97354 14.262 1.98365 14.2783 1.99377 14.2935C2.00388 14.3086 2.014 14.3249 2.02411 14.3401C2.03423 14.3552 2.04434 14.3703 2.05572 14.3866C2.06584 14.4018 2.07595 14.4169 2.08733 14.432C2.09871 14.4471 2.10883 14.4622 2.11895 14.4773C2.12906 14.4924 2.14044 14.5076 2.15056 14.5227C2.16067 14.5378 2.17205 14.5529 2.18217 14.568C2.19355 14.5831 2.20366 14.5982 2.21504 14.6134C2.22642 14.6285 2.23654 14.6436 2.24792 14.6587C2.2593 14.6738 2.26942 14.6889 2.2808 14.704C2.29218 14.7191 2.30229 14.7343 2.31367 14.7481C2.32505 14.7632 2.33644 14.7771 2.34655 14.7922C2.35667 14.8073 2.36931 14.8212 2.38069 14.8363C2.39207 14.8514 2.40346 14.8652 2.41484 14.8804C2.42622 14.8955 2.4376 14.9093 2.44898 14.9244C2.46036 14.9395 2.47173 14.9534 2.48311 14.9685C2.49449 14.9824 2.50587 14.9975 2.51725 15.0113C2.52863 15.0252 2.54001 15.0403 2.55266 15.0542C2.56404 15.068 2.57668 15.0831 2.58806 15.097C2.59944 15.1108 2.61208 15.1259 2.62346 15.1398C2.63484 15.1537 2.64748 15.1675 2.65886 15.1826C2.67024 15.1965 2.68289 15.2103 2.69427 15.2242C2.70692 15.238 2.7183 15.2519 2.73095 15.2657C2.74359 15.2796 2.75496 15.2935 2.7676 15.3073C2.78025 15.3212 2.79163 15.335 2.80428 15.3489C2.81692 15.3627 2.82831 15.3766 2.84095 15.3904C2.8536 15.4043 2.86623 15.4181 2.87761 15.432C2.89025 15.4458 2.9029 15.4597 2.91555 15.4723C2.92819 15.4861 2.94084 15.5 2.95349 15.5126C2.96613 15.5264 2.97877 15.539 2.99141 15.5529C3.00406 15.5668 3.01671 15.5793 3.02935 15.5932C3.042 15.6071 3.05463 15.6196 3.06728 15.6335C3.07992 15.6474 3.09257 15.6599 3.10648 15.6738C3.11913 15.6864 3.13303 15.7003 3.14567 15.7128C3.15832 15.7254 3.17223 15.7393 3.18488 15.7519C3.19752 15.7645 3.21142 15.7783 3.22407 15.7909C3.23671 15.8035 3.25063 15.8174 3.26327 15.83C3.27592 15.8426 3.28982 15.8552 3.30373 15.869C3.31764 15.8816 3.33029 15.8942 3.3442 15.9068C3.35811 15.9194 3.37074 15.932 3.38465 15.9446C3.39856 15.9572 3.41121 15.9698 3.42512 15.9824C3.43903 15.995 3.45167 16.0076 3.46558 16.0202C3.47949 16.0327 3.4934 16.0453 3.50605 16.0579C3.51996 16.0705 3.53386 16.0831 3.54777 16.0945C3.56168 16.1071 3.57558 16.1196 3.58949 16.131C3.6034 16.1436 3.61732 16.1549 3.63123 16.1675C3.64514 16.1801 3.65904 16.1914 3.67295 16.204C3.68686 16.2166 3.70076 16.228 3.71467 16.2406C3.72858 16.2531 3.7425 16.2645 3.75641 16.2758C3.77031 16.2872 3.78422 16.2997 3.79939 16.3111C3.81457 16.3224 3.82847 16.335 3.84238 16.3463C3.85629 16.3577 3.87147 16.3703 3.88538 16.3816C3.89929 16.3929 3.91446 16.4055 3.92837 16.4169C3.94228 16.4282 3.95745 16.4395 3.97135 16.4521C3.98526 16.4635 4.00043 16.4748 4.01561 16.4861C4.03078 16.4975 4.0447 16.5088 4.05987 16.5202C4.07505 16.5315 4.08895 16.5428 4.10413 16.5542C4.1193 16.5655 4.13321 16.5768 4.14838 16.5882C4.16355 16.5995 4.17746 16.6108 4.19263 16.6209C4.20781 16.6322 4.22298 16.6436 4.23688 16.6537C4.25206 16.665 4.26724 16.6751 4.28242 16.6864C4.29759 16.6977 4.31276 16.7078 4.32794 16.7191C4.34311 16.7305 4.35828 16.7406 4.37345 16.7519C4.38863 16.7632 4.4038 16.7733 4.41897 16.7834C4.43414 16.7934 4.44932 16.8048 4.46449 16.8149C4.47966 16.8249 4.49483 16.8363 4.51001 16.8463C4.52518 16.8564 4.54035 16.8678 4.55553 16.8778C4.5707 16.8879 4.58587 16.898 4.60231 16.9093C4.61748 16.9194 4.63266 16.9295 4.64909 16.9395C4.66427 16.9496 4.6807 16.9597 4.69588 16.9698C4.71105 16.9798 4.72749 16.9899 4.74266 17C4.75783 17.0101 4.77427 17.0201 4.78944 17.0302C4.80462 17.0403 4.82105 17.0504 4.83623 17.0605C4.8514 17.0705 4.86784 17.0806 4.88428 17.0894C4.90071 17.0995 4.91589 17.1083 4.93233 17.1184C4.94876 17.1285 4.96394 17.1373 4.98038 17.1474C4.99681 17.1574 5.01199 17.1662 5.02843 17.1763C5.04486 17.1864 5.06004 17.1952 5.07647 17.204C5.09291 17.2128 5.10809 17.2229 5.12452 17.2317C5.14096 17.2406 5.1574 17.2506 5.17257 17.2594C5.18901 17.2683 5.20545 17.2783 5.22189 17.2872C5.23833 17.296 5.25477 17.3048 5.2712 17.3136C5.28764 17.3224 5.30408 17.3312 5.32052 17.3401C5.33696 17.3489 5.3534 17.3577 5.36983 17.3665C5.38627 17.3753 5.40271 17.3841 5.41915 17.3929C5.43559 17.4018 5.45201 17.4106 5.46845 17.4194C5.48489 17.4282 5.50133 17.437 5.51776 17.4446C5.5342 17.4534 5.55064 17.461 5.56834 17.4698C5.58478 17.4786 5.60122 17.4861 5.61893 17.495C5.63536 17.5038 5.65307 17.5113 5.66951 17.5202C5.68594 17.529 5.70365 17.5365 5.72009 17.5441C5.73652 17.5516 5.75421 17.5605 5.77065 17.568C5.78709 17.5756 5.80479 17.5844 5.82123 17.5919C5.83767 17.5995 5.85538 17.6071 5.87181 17.6159C5.88825 17.6234 5.90596 17.631 5.92366 17.6385C5.94136 17.6461 5.95779 17.6537 5.97549 17.6612C5.99319 17.6688 6.00963 17.6763 6.02734 17.6839C6.04504 17.6914 6.06148 17.699 6.07918 17.7066C6.09689 17.7141 6.11333 17.7217 6.13103 17.728C6.14873 17.7355 6.16516 17.7431 6.18286 17.7494C6.20056 17.7557 6.217 17.7632 6.23471 17.7708C6.25241 17.7783 6.27012 17.7846 6.28655 17.7922C6.30299 17.7997 6.32195 17.806 6.33965 17.8136C6.35735 17.8199 6.37506 17.8275 6.39276 17.8338C6.41046 17.84 6.42817 17.8476 6.44587 17.8539C6.46358 17.8602 6.48127 17.8678 6.49897 17.8741C6.51667 17.8804 6.53438 17.8867 6.55208 17.8942C6.56979 17.9005 6.58749 17.9068 6.6052 17.9131C6.6229 17.9194 6.64059 17.9257 6.65829 17.932C6.67599 17.9383 6.6937 17.9446 6.7114 17.9509C6.72911 17.9572 6.7468 17.9635 6.7645 17.9698C6.7822 17.9761 6.79991 17.9824 6.81888 17.9874C6.83658 17.9937 6.85429 17.9987 6.87326 18.005C6.89096 18.0113 6.90992 18.0164 6.92762 18.0227C6.94532 18.029 6.96429 18.034 6.982 18.0403C6.9997 18.0466 7.01866 18.0516 7.03636 18.0567C7.05406 18.0617 7.07303 18.068 7.09074 18.073C7.10844 18.0781 7.1274 18.0844 7.1451 18.0894C7.1628 18.0945 7.18177 18.0995 7.19948 18.1045C7.21718 18.1096 7.23614 18.1146 7.2551 18.1196C7.27407 18.1247 7.29178 18.1297 7.31075 18.1348C7.32971 18.1398 7.34741 18.1448 7.36638 18.1499C7.38534 18.1549 7.40305 18.1599 7.42202 18.1637C7.44099 18.1688 7.45868 18.1725 7.47765 18.1776C7.49661 18.1826 7.51432 18.1864 7.53329 18.1914C7.55226 18.1965 7.56995 18.2003 7.58892 18.2053C7.60789 18.2103 7.6256 18.2141 7.64456 18.2179C7.66353 18.2217 7.68249 18.2267 7.70019 18.2305C7.71916 18.2343 7.73813 18.2393 7.75583 18.2431C7.7748 18.2469 7.79376 18.2506 7.81273 18.2557C7.83169 18.2594 7.85067 18.2632 7.86964 18.267C7.8886 18.2708 7.90756 18.2746 7.92653 18.2783C7.9455 18.2821 7.96446 18.2859 7.98342 18.2897C8.00239 18.2934 8.02137 18.2972 8.04033 18.2997C8.0593 18.3035 8.07826 18.3073 8.09723 18.3098C8.11619 18.3136 8.13517 18.3161 8.15414 18.3199C8.1731 18.3237 8.19206 18.3262 8.21103 18.33C8.23 18.3338 8.24896 18.3363 8.26792 18.3388C8.28689 18.3413 8.30587 18.3451 8.32483 18.3476C8.3438 18.3501 8.36276 18.3539 8.38299 18.3564C8.40196 18.3589 8.42092 18.3615 8.44115 18.3652C8.46138 18.369 8.47909 18.3703 8.49933 18.3728C8.51829 18.3753 8.53852 18.3778 8.55748 18.3804C8.57645 18.3829 8.59668 18.3854 8.61564 18.3879C8.63461 18.3904 8.65485 18.3929 8.67382 18.3942C8.69279 18.3955 8.71301 18.398 8.73198 18.4005C8.75095 18.403 8.77117 18.4043 8.79014 18.4068C8.8091 18.4093 8.82935 18.4106 8.84831 18.4131C8.86728 18.4144 8.8875 18.4169 8.90647 18.4181C8.92544 18.4194 8.94566 18.4219 8.96463 18.4232C8.9836 18.4244 9.00384 18.4257 9.02281 18.4282C9.04304 18.4295 9.062 18.4307 9.08223 18.432C9.10246 18.4332 9.12142 18.4345 9.14166 18.4358C9.16189 18.4358 9.18085 18.4383 9.20108 18.4395C9.22131 18.4395 9.24029 18.4421 9.26052 18.4433C9.28075 18.4433 9.29972 18.4458 9.31995 18.4458C9.34018 18.4458 9.35914 18.4471 9.37937 18.4484C9.3996 18.4484 9.41857 18.4496 9.4388 18.4509C9.45903 18.4509 9.47801 18.4509 9.49824 18.4521C9.51847 18.4521 9.53743 18.4521 9.55766 18.4534C9.57789 18.4534 9.59686 18.4534 9.61709 18.4534C9.63732 18.4534 9.65755 18.4534 9.67651 18.4534C9.69674 18.4534 9.71697 18.4534 9.73594 18.4534C9.73973 18.4534 9.74354 18.4534 9.74859 18.4534C9.75239 18.4534 9.75618 18.4534 9.76124 18.4534C9.76503 18.4534 9.76882 18.4534 9.77388 18.4534C9.77893 18.4534 9.78146 18.4534 9.78652 18.4534H9.79916C9.79916 18.4534 9.80676 18.4534 9.81182 18.4534C9.81561 18.4534 9.8194 18.4534 9.82446 18.4534C9.82825 18.4534 9.83204 18.4534 9.8371 18.4534C9.84216 18.4534 9.84468 18.4534 9.84974 18.4534C9.8548 18.4534 9.85732 18.4534 9.86238 18.4534C9.86744 18.4534 9.86998 18.4534 9.87504 18.4534C9.87883 18.4534 9.88262 18.4534 9.88768 18.4534C9.89274 18.4534 9.89526 18.4534 9.90032 18.4534H9.91296C9.91296 18.4534 9.92055 18.4534 9.9256 18.4534C9.9294 18.4534 9.9332 18.4534 9.93826 18.4534C9.94205 18.4534 9.94584 18.4534 9.9509 18.4534C9.95596 18.4534 9.95848 18.4534 9.96354 18.4534C9.96734 18.4534 9.97113 18.4534 9.97618 18.4534C9.98124 18.4534 9.98377 18.4534 9.98882 18.4534C9.99262 18.4534 9.99642 18.4534 10.0015 18.4534H10.0141C10.0141 18.4534 10.0217 18.4534 10.0268 18.4534H10.0394C10.0394 18.4534 10.047 18.4534 10.052 18.4534C10.0558 18.4534 10.0596 18.4534 10.0647 18.4534C10.0685 18.4534 10.0723 18.4534 10.0773 18.4534C10.0811 18.4534 10.0849 18.4534 10.09 18.4534C10.095 18.4534 10.0976 18.4534 10.1026 18.4534C10.1064 18.4534 10.1102 18.4534 10.1153 18.4534C10.1191 18.4534 10.1229 18.4534 10.1279 18.4534C10.1317 18.4534 10.1355 18.4534 10.1406 18.4534C10.1444 18.4534 10.1481 18.4534 10.1519 18.4534C10.1557 18.4534 10.1595 18.4534 10.1646 18.4534C10.1684 18.4534 10.1722 18.4534 10.176 18.4534C10.1798 18.4534 10.1836 18.4534 10.1874 18.4534C10.1911 18.4534 10.1949 18.4534 10.1987 18.4534C10.2025 18.4534 10.2063 18.4534 10.2101 18.4534C10.2139 18.4534 10.2177 18.4534 10.2215 18.4534C10.2253 18.4534 10.2291 18.4534 10.2329 18.4534C10.2367 18.4534 10.2405 18.4534 10.2442 18.4534C10.248 18.4534 10.2518 18.4534 10.2556 18.4534C10.2594 18.4534 10.2632 18.4534 10.267 18.4534C10.2708 18.4534 10.2746 18.4534 10.2784 18.4534C10.2822 18.4534 10.286 18.4534 10.2898 18.4534C10.2936 18.4534 10.2974 18.4534 10.3012 18.4534C10.3049 18.4534 10.3087 18.4534 10.3125 18.4534H10.3239C10.3239 18.4534 10.3315 18.4521 10.3353 18.4521C10.3391 18.4521 10.3429 18.4521 10.3467 18.4521C10.3505 18.4521 10.3543 18.4521 10.358 18.4521C10.3618 18.4521 10.3656 18.4521 10.3694 18.4521C10.3732 18.4521 10.377 18.4521 10.3808 18.4521C10.3846 18.4521 10.3884 18.4521 10.3922 18.4521C10.396 18.4521 10.3998 18.4521 10.4036 18.4521C10.4074 18.4521 10.4112 18.4521 10.415 18.4521C10.4187 18.4521 10.4225 18.4521 10.4263 18.4521H10.4377C10.4377 18.4521 10.4453 18.4509 10.4491 18.4509C10.4529 18.4509 10.4567 18.4509 10.4605 18.4509C10.4643 18.4509 10.4681 18.4509 10.4719 18.4509C10.4756 18.4509 10.4794 18.4509 10.4832 18.4509C10.487 18.4509 10.4908 18.4509 10.4946 18.4509C10.4984 18.4509 10.5022 18.4509 10.506 18.4509C10.5098 18.4509 10.5136 18.4509 10.5174 18.4509C10.5212 18.4509 10.525 18.4509 10.5287 18.4509C10.5325 18.4509 10.5363 18.4509 10.5401 18.4509C10.5439 18.4509 10.5477 18.4509 10.5515 18.4509C10.5553 18.4509 10.5591 18.4509 10.5629 18.4509C10.5667 18.4509 10.5705 18.4509 10.5743 18.4509C10.5781 18.4509 10.5819 18.4509 10.5857 18.4509C10.5894 18.4509 10.5932 18.4509 10.597 18.4509H10.6084C10.6084 18.4509 10.616 18.4484 10.6198 18.4484H10.6312C10.6312 18.4484 10.6388 18.4458 10.6425 18.4458C10.6463 18.4458 10.6501 18.4458 10.6539 18.4458C10.6577 18.4458 10.6615 18.4458 10.6653 18.4458C10.6691 18.4458 10.6729 18.4458 10.6767 18.4458C10.6805 18.4458 10.6843 18.4458 10.6881 18.4458C10.6919 18.4458 10.6957 18.4458 10.6995 18.4446C10.7032 18.4446 10.707 18.4446 10.7108 18.4433H10.7222C10.7222 18.4433 10.7298 18.4408 10.7336 18.4408C10.7374 18.4408 10.7412 18.4408 10.745 18.4395C10.7488 18.4383 10.7526 18.4395 10.7563 18.4383C10.7601 18.4383 10.7639 18.4383 10.7677 18.437C10.7715 18.437 10.7753 18.437 10.7791 18.4358C10.7829 18.4358 10.7867 18.4358 10.7905 18.4345C10.7943 18.4345 10.7981 18.4345 10.8019 18.4333H10.8132C10.8132 18.4333 10.8208 18.4307 10.8246 18.4307C10.8284 18.4307 10.8322 18.4307 10.836 18.4295C10.8398 18.4295 10.8436 18.4295 10.8474 18.4282C10.8512 18.4282 10.855 18.4282 10.8588 18.427C10.8626 18.427 10.8664 18.427 10.8702 18.4257C10.8739 18.4257 10.8777 18.4257 10.8815 18.4244C10.8853 18.4244 10.8891 18.4244 10.8929 18.4232C10.8967 18.4219 10.9005 18.4232 10.9043 18.4219C10.9081 18.4207 10.9119 18.4219 10.9157 18.4207C10.9195 18.4194 10.9233 18.4207 10.927 18.4194C10.9308 18.4194 10.9346 18.4194 10.9384 18.4181C10.9422 18.4181 10.946 18.4181 10.9498 18.4169C10.9536 18.4169 10.9574 18.4169 10.9612 18.4156C10.965 18.4156 10.9688 18.4156 10.9726 18.4144C10.9764 18.4131 10.9802 18.4144 10.984 18.4131C10.9877 18.4131 10.9915 18.4131 10.9953 18.4118C10.9991 18.4118 11.0029 18.4118 11.0067 18.4106C11.0105 18.4093 11.0143 18.4106 11.0181 18.4093C11.0219 18.4081 11.0257 18.4093 11.0295 18.4081C11.0333 18.4081 11.0371 18.4081 11.0408 18.4068C11.0446 18.4068 11.0484 18.4068 11.0522 18.4055C11.056 18.4055 11.0598 18.4055 11.0636 18.4043H11.075C11.075 18.4043 11.0826 18.4018 11.0864 18.4005C11.0902 18.4005 11.0939 18.4005 11.0977 18.3992C11.1015 18.3992 11.1053 18.3992 11.1091 18.398C11.1129 18.398 11.1167 18.398 11.1205 18.3967C11.1243 18.3955 11.1281 18.3967 11.1319 18.3955C11.1357 18.3955 11.1395 18.3955 11.1433 18.3942C11.1471 18.3942 11.1509 18.3942 11.1547 18.3929C11.1584 18.3929 11.1622 18.3929 11.166 18.3917C11.1698 18.3917 11.1736 18.3917 11.1774 18.3904C11.1812 18.3904 11.185 18.3904 11.1888 18.3879C11.1926 18.3879 11.1964 18.3879 11.2002 18.3854C11.204 18.3854 11.2078 18.3841 11.2115 18.3829C11.2153 18.3829 11.2191 18.3816 11.2229 18.3804C11.2267 18.3804 11.2305 18.3791 11.2343 18.3778C11.2381 18.3778 11.2419 18.3766 11.2457 18.3753C11.2495 18.3753 11.2533 18.3741 11.2571 18.3728C11.2609 18.3728 11.2647 18.3715 11.2685 18.3703C11.2722 18.3703 11.276 18.369 11.2798 18.3678C11.2836 18.3678 11.2874 18.3665 11.2912 18.3652C11.295 18.3652 11.2988 18.364 11.3026 18.3627C11.3064 18.3627 11.3102 18.3615 11.314 18.3602C11.3178 18.3602 11.3216 18.3589 11.3253 18.3577C11.3291 18.3577 11.3329 18.3564 11.3367 18.3552C11.3405 18.3552 11.3443 18.3539 11.3481 18.3526C11.3519 18.3526 11.3557 18.3514 11.3595 18.3501L11.3709 18.3476C11.3709 18.3476 11.3784 18.3463 11.3822 18.3451C11.386 18.3451 11.3898 18.3438 11.3936 18.3426C11.3974 18.3413 11.4012 18.3413 11.405 18.3401C11.4088 18.3401 11.4126 18.3388 11.4164 18.3375C11.4202 18.3375 11.424 18.3363 11.4278 18.335C11.4316 18.335 11.4354 18.3338 11.4392 18.3325C11.4429 18.3325 11.4467 18.3312 11.4505 18.33C11.4543 18.33 11.4581 18.3287 11.4619 18.3275C11.4657 18.3275 11.4695 18.3262 11.4733 18.3249C11.4771 18.3249 11.4809 18.3237 11.4847 18.3224C11.4885 18.3224 11.4923 18.3212 11.496 18.3199C11.4998 18.3199 11.5036 18.3186 11.5074 18.3174L11.5188 18.3149C11.5188 18.3149 11.5264 18.3136 11.5302 18.3123C11.534 18.3123 11.5378 18.3111 11.5416 18.3098L11.553 18.3073C11.553 18.3073 11.5605 18.306 11.5643 18.3048C11.5681 18.3048 11.5719 18.3035 11.5757 18.3023C11.5795 18.3023 11.5833 18.301 11.5871 18.2997C11.5909 18.2997 11.5947 18.2985 11.5985 18.2972C11.6023 18.2972 11.6061 18.296 11.6098 18.2947L11.6212 18.2922C11.6212 18.2922 11.6288 18.2909 11.6326 18.2897L11.644 18.2872C11.644 18.2872 11.6516 18.2859 11.6554 18.2846C11.6592 18.2846 11.6629 18.2834 11.6667 18.2821C11.6705 18.2821 11.6743 18.2809 11.6781 18.2796C11.6819 18.2796 11.6857 18.2783 11.6895 18.2771C11.6933 18.2771 11.6971 18.2758 11.7009 18.2746L11.7123 18.272C11.7123 18.272 11.7199 18.2708 11.7236 18.2695C11.7274 18.2695 11.7312 18.2683 11.735 18.267C11.7388 18.267 11.7426 18.2657 11.7464 18.2645C11.7502 18.2645 11.754 18.2632 11.7578 18.262C11.7616 18.262 11.7654 18.2607 11.7692 18.2594C11.773 18.2594 11.7768 18.2582 11.7805 18.2569C11.7843 18.2569 11.7881 18.2557 11.7919 18.2544L11.8033 18.2519C11.8033 18.2519 11.8109 18.2506 11.8147 18.2494C11.8185 18.2494 11.8223 18.2481 11.8261 18.2469C11.8299 18.2469 11.8337 18.2456 11.8375 18.2443C11.8412 18.2443 11.845 18.2431 11.8488 18.2418C11.8526 18.2418 11.8564 18.2406 11.8602 18.2393C11.864 18.238 11.8678 18.238 11.8716 18.2368C11.8754 18.2368 11.8792 18.2355 11.883 18.2343C11.8868 18.2343 11.8906 18.233 11.8943 18.2317C11.8981 18.2317 11.9019 18.2305 11.9057 18.2292C11.9095 18.2292 11.9133 18.228 11.9171 18.2267C11.9209 18.2267 11.9247 18.2254 11.9285 18.2242C11.9323 18.2229 11.9361 18.2229 11.9399 18.2217C11.9437 18.2217 11.9474 18.2204 11.9512 18.2191C11.955 18.2191 11.9588 18.2166 11.9626 18.2166C11.9664 18.2166 11.9702 18.2141 11.974 18.2141C11.9778 18.2141 11.9816 18.2116 11.9854 18.2116C11.9892 18.2116 11.993 18.2091 11.9968 18.2091C12.0006 18.2091 12.0044 18.2066 12.0081 18.2066C12.0119 18.2066 12.0157 18.204 12.0195 18.204C12.0233 18.204 12.0271 18.2015 12.0309 18.2015C12.0347 18.2015 12.0385 18.199 12.0423 18.199C12.0461 18.199 12.0499 18.1965 12.0537 18.1965C12.0575 18.1965 12.0612 18.194 12.065 18.194C12.0688 18.194 12.0726 18.1914 12.0764 18.1914C12.0802 18.1914 12.084 18.1889 12.0878 18.1889C12.0916 18.1889 12.0954 18.1864 12.0992 18.1864C12.103 18.1864 12.1068 18.1839 12.1106 18.1839L12.122 18.1814C12.122 18.1814 12.1295 18.1788 12.1333 18.1788C12.1371 18.1788 12.1409 18.1763 12.1447 18.1763C12.1485 18.1763 12.1523 18.1738 12.1561 18.1738C12.1599 18.1738 12.1637 18.1713 12.1675 18.1713C12.1713 18.1713 12.1751 18.1688 12.1788 18.1688C12.1826 18.1688 12.1864 18.1662 12.1902 18.1662C12.194 18.1662 12.1978 18.1637 12.2016 18.1637C12.2054 18.1637 12.2092 18.1612 12.213 18.1612C12.2168 18.1612 12.2206 18.1587 12.2244 18.1587C12.2282 18.1587 12.2319 18.1562 12.2357 18.1549C12.2395 18.1537 12.2433 18.1524 12.2471 18.1511C12.2509 18.1499 12.2547 18.1486 12.2585 18.1474C12.2623 18.1474 12.2661 18.1448 12.2699 18.1436C12.2737 18.1436 12.2775 18.1411 12.2813 18.1398C12.2851 18.1385 12.2889 18.1373 12.2926 18.136C12.2964 18.136 12.3002 18.1335 12.304 18.1322C12.3078 18.1322 12.3116 18.1297 12.3154 18.1285C12.3192 18.1285 12.323 18.1259 12.3268 18.1247C12.3306 18.1247 12.3344 18.1222 12.3382 18.1209L12.3495 18.1171L12.3609 18.1133C12.3609 18.1133 12.3685 18.1108 12.3723 18.1096C12.3761 18.1096 12.3799 18.1071 12.3837 18.1058C12.3875 18.1045 12.3913 18.1033 12.3951 18.102C12.3989 18.102 12.4027 18.0995 12.4065 18.0982C12.4102 18.0982 12.414 18.0957 12.4178 18.0945L12.4292 18.0907C12.4292 18.0907 12.4368 18.0882 12.4406 18.0869C12.4444 18.0869 12.4482 18.0844 12.452 18.0831C12.4558 18.0831 12.4596 18.0806 12.4633 18.0793C12.4671 18.0793 12.4709 18.0768 12.4747 18.0756C12.4785 18.0743 12.4823 18.073 12.4861 18.0718L12.4975 18.068C12.4975 18.068 12.5051 18.0655 12.5089 18.0642L12.5202 18.0605C12.5202 18.0605 12.5278 18.0579 12.5316 18.0567C12.5354 18.0567 12.5392 18.0542 12.543 18.0529C12.5468 18.0529 12.5506 18.0504 12.5544 18.0491L12.5658 18.0453C12.5658 18.0453 12.5734 18.0428 12.5771 18.0416L12.5885 18.0378C12.5885 18.0378 12.5961 18.0353 12.5999 18.034C12.6037 18.034 12.6075 18.0315 12.6113 18.0302C12.6151 18.0302 12.6189 18.0277 12.6227 18.0264C12.6265 18.0264 12.6302 18.0239 12.634 18.0227C12.6378 18.0227 12.6416 18.0201 12.6454 18.0189L12.6568 18.0151C12.6568 18.0151 12.6644 18.0126 12.6682 18.0113C12.672 18.0113 12.6758 18.0088 12.6796 18.0076C12.6834 18.0076 12.6872 18.005 12.691 18.0038C12.691 18.0227 12.691 18.0416 12.691 18.0605C12.691 18.0793 12.691 18.0982 12.691 18.1171C12.691 18.136 12.691 18.1549 12.691 18.1738C12.691 18.1927 12.691 18.2116 12.691 18.2305C12.691 18.2494 12.6909 18.2683 12.6897 18.2872C12.6897 18.306 12.6897 18.3249 12.6884 18.3438C12.6884 18.3627 12.6884 18.3816 12.6859 18.4005C12.6859 18.4194 12.6846 18.4383 12.6834 18.4572C12.6834 18.4761 12.6821 18.495 12.6808 18.5139C12.6796 18.5327 12.6796 18.5516 12.6783 18.5705C12.6783 18.5894 12.6758 18.6083 12.6758 18.6272C12.6758 18.6461 12.6732 18.665 12.6732 18.6839C12.6732 18.7028 12.6707 18.7217 12.6694 18.7406C12.6694 18.7594 12.6669 18.7783 12.6657 18.796C12.6657 18.8149 12.6631 18.8338 12.6619 18.8514C12.6606 18.8703 12.6593 18.8892 12.6581 18.9068C12.6568 18.9257 12.6555 18.9446 12.6543 18.9622C12.653 18.9811 12.6517 18.9987 12.6492 19.0176C12.6479 19.0365 12.6454 19.0542 12.6442 19.073C12.6429 19.0919 12.6404 19.1096 12.6391 19.1285C12.6378 19.1474 12.6353 19.165 12.634 19.1839C12.6328 19.2028 12.6302 19.2204 12.629 19.2393C12.6277 19.2582 12.6252 19.2758 12.6227 19.2947C12.6201 19.3136 12.6189 19.3312 12.6163 19.3501C12.6138 19.369 12.6126 19.3867 12.61 19.4055C12.6075 19.4244 12.6062 19.4421 12.6037 19.461C12.6012 19.4798 12.5999 19.4975 12.5974 19.5164C12.5948 19.5353 12.5923 19.5529 12.5911 19.5705C12.5885 19.5882 12.586 19.6071 12.5835 19.6247C12.5809 19.6423 12.5784 19.6612 12.5759 19.6788C12.5734 19.6965 12.5708 19.7154 12.5683 19.733C12.5658 19.7506 12.5632 19.7695 12.5607 19.7872C12.5582 19.8048 12.5556 19.8237 12.5531 19.8413C12.5506 19.8589 12.5481 19.8778 12.5455 19.8955C12.543 19.9131 12.5405 19.932 12.5379 19.9496C12.5354 19.9673 12.5329 19.9861 12.5291 20.0038C12.5266 20.0214 12.5228 20.039 12.5202 20.0579C12.5177 20.0756 12.5139 20.0932 12.5114 20.1121C12.5089 20.1297 12.5051 20.1474 12.5025 20.165C12.5 20.1826 12.4962 20.2003 12.4937 20.2179C12.4912 20.2355 12.4874 20.2531 12.4848 20.2708C12.4823 20.2884 12.4785 20.306 12.4747 20.3237C12.4709 20.3413 12.4684 20.3589 12.4646 20.3766C12.4608 20.3942 12.4583 20.4118 12.4545 20.4295C12.4507 20.4471 12.4482 20.4647 12.4444 20.4824C12.4406 20.5 12.4381 20.5176 12.4343 20.5353C12.4305 20.5529 12.4279 20.5705 12.4241 20.5882C12.4203 20.6058 12.4166 20.6234 12.414 20.6411C12.4102 20.6587 12.4064 20.6763 12.4039 20.694C12.4014 20.7116 12.3963 20.7292 12.3925 20.7456C12.3887 20.7632 12.3849 20.7809 12.3812 20.7972C12.3774 20.8149 12.3736 20.8325 12.3698 20.8489C12.366 20.8652 12.3622 20.8829 12.3584 20.9005C12.3546 20.9181 12.3508 20.9345 12.347 20.9521C12.3432 20.9698 12.3394 20.9861 12.3356 21.0038C12.3318 21.0214 12.3281 21.0378 12.3243 21.0554C12.3205 21.073 12.3167 21.0894 12.3129 21.1071C12.3091 21.1247 12.3053 21.1411 12.3002 21.1587C12.2964 21.1763 12.2926 21.1927 12.2876 21.2091C12.2825 21.2254 12.2787 21.2431 12.2749 21.2594C12.2712 21.2758 12.2661 21.2935 12.2623 21.3098C12.2585 21.3262 12.2534 21.3438 12.2496 21.3602C12.2459 21.3766 12.2408 21.3942 12.237 21.4106C12.2332 21.427 12.2282 21.4446 12.2244 21.461C12.2206 21.4773 12.2155 21.495 12.2117 21.5113C12.2079 21.5277 12.2029 21.5441 12.1991 21.5617C12.194 21.5781 12.1902 21.5945 12.1852 21.6121C12.1801 21.6285 12.1763 21.6448 12.1713 21.6612C12.1662 21.6776 12.1624 21.694 12.1573 21.7103C12.1523 21.7267 12.1485 21.7431 12.1434 21.7594C12.1384 21.7758 12.1346 21.7922 12.1295 21.8086C12.1245 21.8249 12.1207 21.8413 12.1156 21.8577C12.1106 21.8741 12.1068 21.8904 12.1017 21.9068C12.0967 21.9232 12.0929 21.9395 12.0878 21.9559C12.0828 21.9723 12.0777 21.9887 12.0739 22.005C12.0688 22.0214 12.0638 22.0378 12.06 22.0529C12.0562 22.068 12.0499 22.0856 12.0448 22.1008C12.0398 22.1159 12.0347 22.1335 12.0296 22.1486C12.0246 22.165 12.0195 22.1801 12.0145 22.1965C12.0094 22.2128 12.0043 22.228 11.9993 22.2443C11.9942 22.2607 11.9892 22.2758 11.9841 22.2922C11.9791 22.3086 11.974 22.3237 11.9689 22.34C11.9639 22.3564 11.9588 22.3715 11.9538 22.3879C11.9487 22.4043 11.9437 22.4194 11.9386 22.4345C11.9335 22.4496 11.9285 22.466 11.9234 22.4811C11.9184 22.4962 11.9133 22.5126 11.9083 22.5277C11.9032 22.5428 11.8981 22.5592 11.8931 22.5743C11.888 22.5894 11.883 22.6058 11.8779 22.6209C11.8729 22.636 11.8678 22.6524 11.8627 22.6675C11.8577 22.6826 11.8526 22.6977 11.8476 22.7141C11.8425 22.7305 11.8374 22.7443 11.8311 22.7594C11.8261 22.7746 11.821 22.7897 11.8147 22.8048C11.8096 22.8199 11.8046 22.835 11.7982 22.8501C11.7932 22.8652 11.7881 22.8804 11.7818 22.8955C11.7755 22.9106 11.7704 22.9257 11.7654 22.9408C11.7603 22.9559 11.754 22.971 11.7489 22.9861C11.7439 23.0013 11.7376 23.0164 11.7325 23.0315C11.7274 23.0466 11.7211 23.0617 11.7161 23.0756C11.711 23.0907 11.7047 23.1058 11.6996 23.1196C11.6946 23.1348 11.6882 23.1486 11.6832 23.1637C11.6781 23.1788 11.6718 23.1927 11.6667 23.2078C11.6617 23.2229 11.6554 23.2368 11.6503 23.2519C11.6452 23.267 11.6389 23.2809 11.6339 23.296C11.6288 23.3111 11.6225 23.3249 11.6174 23.34C11.6124 23.3552 11.606 23.369 11.601 23.3829C11.5959 23.3967 11.5896 23.4118 11.5846 23.4257C11.5795 23.4395 11.5732 23.4547 11.5681 23.4685C11.5631 23.4824 11.5567 23.4975 11.5517 23.5113C11.5466 23.5252 11.5403 23.5403 11.5352 23.5542C11.5302 23.568 11.5239 23.5819 11.5188 23.597C11.5138 23.6121 11.5074 23.6247 11.5024 23.6385C11.4973 23.6524 11.491 23.6662 11.4859 23.6801C11.4809 23.694 11.4746 23.7078 11.4695 23.7217C11.4644 23.7355 11.4581 23.7494 11.4518 23.7632C11.4455 23.7771 11.4404 23.7909 11.4341 23.8048C11.4278 23.8186 11.4227 23.8325 11.4164 23.8463C11.4101 23.8602 11.405 23.8741 11.3987 23.8879C11.3924 23.9018 11.3873 23.9156 11.381 23.9282C11.3747 23.9421 11.3696 23.9547 11.3633 23.9685C11.357 23.9824 11.3519 23.995 11.3456 24.0088C11.3393 24.0227 11.3342 24.0353 11.3279 24.0491C11.3216 24.063 11.3165 24.0756 11.3102 24.0894C11.3039 24.1033 11.2988 24.1159 11.2925 24.1285C11.2861 24.1411 11.2811 24.1549 11.2748 24.1675C11.2684 24.1801 11.2634 24.194 11.2571 24.2065C11.2507 24.2191 11.2457 24.233 11.2394 24.2456C11.233 24.2582 11.228 24.272 11.2217 24.2846C11.2153 24.2972 11.2103 24.3098 11.204 24.3237C11.1976 24.3375 11.1926 24.3489 11.1863 24.3615C11.1799 24.3741 11.1749 24.3867 11.1686 24.3992C11.1622 24.4118 11.1572 24.4244 11.1509 24.437C11.1445 24.4496 11.1395 24.4622 11.1332 24.4748C11.1268 24.4874 11.1218 24.5 11.1154 24.5126C11.1091 24.5252 11.1041 24.5378 11.0977 24.5504C11.0914 24.563 11.0864 24.5756 11.08 24.5869C11.0737 24.5995 11.0687 24.6108 11.0623 24.6234C11.056 24.636 11.051 24.6474 11.0446 24.66C11.0383 24.6725 11.0333 24.6839 11.0269 24.6965C11.0206 24.7091 11.0156 24.7204 11.0092 24.733C11.0029 24.7456 10.9979 24.7569 10.9915 24.7683C10.9852 24.7796 10.9802 24.7922 10.9738 24.8035C10.9675 24.8149 10.9624 24.8275 10.9561 24.8388C10.9498 24.8501 10.9447 24.8627 10.9397 24.8741C10.9346 24.8854 10.9283 24.8967 10.9232 24.9093C10.9182 24.9219 10.9119 24.932 10.9068 24.9433C10.9018 24.9547 10.8954 24.966 10.8904 24.9773C10.8853 24.9887 10.879 25 10.8739 25.0113C10.8689 25.0227 10.8626 25.034 10.8575 25.0453C10.8525 25.0567 10.8461 25.068 10.8411 25.0793C10.836 25.0907 10.8297 25.102 10.8246 25.1134C10.8196 25.1247 10.8133 25.136 10.8082 25.1461C10.8031 25.1562 10.7968 25.1675 10.7918 25.1788C10.7867 25.1902 10.7804 25.2003 10.7753 25.2116C10.7703 25.2229 10.7639 25.233 10.7589 25.2443C10.7538 25.2557 10.7475 25.2657 10.7424 25.2771C10.7374 25.2872 10.7311 25.2985 10.726 25.3086C10.7209 25.3186 10.7146 25.33 10.7096 25.34C10.7045 25.3501 10.6982 25.3615 10.6931 25.3715C10.6881 25.3816 10.6817 25.3929 10.6767 25.403C10.6716 25.4131 10.6653 25.4232 10.6603 25.4332C10.6552 25.4433 10.6489 25.4534 10.6438 25.4635C10.6388 25.4736 10.6337 25.4836 10.6274 25.4937C10.6223 25.5038 10.6173 25.5139 10.6109 25.5239C10.6059 25.534 10.6008 25.5441 10.5945 25.5542C10.5894 25.5642 10.5844 25.5743 10.5781 25.5831C10.573 25.5932 10.5679 25.6033 10.5629 25.6121C10.5578 25.6209 10.5528 25.631 10.5477 25.6411C10.5427 25.6511 10.5376 25.6599 10.5325 25.67C10.5275 25.6801 10.5224 25.6889 10.5174 25.699C10.5123 25.7078 10.5073 25.7179 10.5022 25.7267C10.4971 25.7355 10.4921 25.7456 10.487 25.7544C10.482 25.7632 10.4769 25.7733 10.4719 25.7821C10.4668 25.7909 10.4617 25.801 10.4567 25.8098C10.4516 25.8186 10.4466 25.8275 10.4415 25.8363C10.4364 25.8451 10.4314 25.8539 10.4263 25.8627C10.4213 25.8715 10.4162 25.8804 10.4112 25.8892C10.4061 25.898 10.401 25.9068 10.396 25.9156C10.3909 25.9244 10.3859 25.9332 10.3808 25.9421C10.3758 25.9509 10.3707 25.9597 10.3656 25.9673C10.3606 25.9761 10.3555 25.9836 10.3517 25.9924C10.3479 26.0013 10.3416 26.0088 10.3378 26.0176C10.3328 26.0264 10.3277 26.034 10.3239 26.0428C10.3188 26.0516 10.3151 26.0592 10.31 26.0667C10.3049 26.0743 10.3011 26.0831 10.2961 26.0907C10.291 26.0982 10.2872 26.1071 10.2822 26.1146C10.2771 26.1222 10.2733 26.131 10.2683 26.1385C10.2632 26.1461 10.2594 26.1537 10.2544 26.1625C10.2493 26.17 10.2455 26.1776 10.2405 26.1851C10.2354 26.1927 10.2316 26.2003 10.2265 26.2078C10.2215 26.2154 10.2177 26.2229 10.2139 26.2305C10.2101 26.238 10.2051 26.2456 10.2013 26.2531C10.1975 26.2607 10.1924 26.2683 10.1886 26.2746C10.1848 26.2809 10.1798 26.2884 10.176 26.296C10.1722 26.3035 10.1671 26.3098 10.1633 26.3174C10.1595 26.3249 10.1545 26.3312 10.1507 26.3388C10.1469 26.3463 10.1418 26.3526 10.138 26.3589C10.1342 26.3652 10.1292 26.3728 10.1254 26.3791C10.1216 26.3854 10.1178 26.3929 10.1128 26.3992C10.109 26.4055 10.1052 26.4118 10.1001 26.4194C10.0963 26.4257 10.0925 26.432 10.0887 26.4383C10.0849 26.4446 10.0811 26.4509 10.0773 26.4572C10.0736 26.4635 10.0698 26.4698 10.066 26.4761C10.0622 26.4824 10.0584 26.4887 10.0546 26.495C10.0508 26.5013 10.047 26.5076 10.0432 26.5126C10.0394 26.5189 10.0356 26.5252 10.0318 26.5302C10.028 26.5365 10.0242 26.5416 10.0204 26.5479C10.0166 26.5542 10.0129 26.5592 10.0091 26.5655C10.0053 26.5718 10.0015 26.5768 9.99895 26.5819C9.99516 26.5869 9.99135 26.5932 9.98882 26.5982C9.98503 26.6033 9.98251 26.6096 9.97871 26.6146C9.97492 26.6196 9.9724 26.6247 9.96861 26.631C9.96481 26.6373 9.96227 26.6411 9.95848 26.6461C9.95469 26.6511 9.95216 26.6562 9.94837 26.6612C9.94458 26.6662 9.94205 26.6713 9.93826 26.6763C9.93573 26.6814 9.93193 26.6864 9.9294 26.6914C9.92687 26.6965 9.92308 26.7015 9.92056 26.7053C9.91803 26.7103 9.91422 26.7141 9.9117 26.7191C9.90917 26.7242 9.90538 26.728 9.90285 26.733C9.90032 26.738 9.89652 26.7418 9.89399 26.7469C9.89146 26.7506 9.88894 26.7557 9.88515 26.7594C9.88262 26.7632 9.8801 26.7683 9.8763 26.772C9.87377 26.7758 9.87124 26.7809 9.86871 26.7846C9.86618 26.7884 9.86366 26.7922 9.86113 26.7972C9.8586 26.801 9.85607 26.8048 9.85354 26.8086C9.85101 26.8123 9.84849 26.8161 9.84596 26.8199C9.84343 26.8237 9.84089 26.8275 9.83836 26.8312C9.83584 26.835 9.8333 26.8388 9.83077 26.8413C9.82824 26.8438 9.82572 26.8476 9.82446 26.8514C9.82319 26.8552 9.81939 26.8577 9.81813 26.8615C9.8156 26.8652 9.81434 26.8678 9.81182 26.8715C9.80929 26.8741 9.80802 26.8778 9.80549 26.8804C9.80296 26.8829 9.80169 26.8866 9.79916 26.8892C9.79663 26.8917 9.79537 26.8955 9.79285 26.898C9.79032 26.9005 9.78905 26.903 9.78778 26.9068C9.78652 26.9093 9.784 26.9118 9.78274 26.9144C9.78147 26.9169 9.77894 26.9194 9.77767 26.9219C9.77641 26.9244 9.77388 26.927 9.77261 26.9295C9.77135 26.932 9.77008 26.9345 9.76755 26.9358C9.76502 26.937 9.76503 26.9395 9.76377 26.9421C9.7625 26.9446 9.76123 26.9458 9.75997 26.9484C9.75871 26.9509 9.75744 26.9521 9.75617 26.9547C9.75491 26.9559 9.75364 26.9584 9.75238 26.9597C9.75111 26.961 9.74986 26.9635 9.74859 26.9647C9.74859 26.966 9.74606 26.9685 9.7448 26.9698C9.7448 26.971 9.74227 26.9723 9.74227 26.9736C9.74227 26.9748 9.741 26.9761 9.73973 26.9773C9.73847 26.9786 9.73847 26.9798 9.7372 26.9811C9.73594 26.9824 9.73595 26.9836 9.73469 26.9849C9.73342 26.9861 9.73342 26.9874 9.73215 26.9874C9.73215 26.9874 9.73215 26.9887 9.73089 26.9899C9.73089 26.9899 9.73089 26.9912 9.72962 26.9924C9.72962 26.9924 9.72962 26.9924 9.72962 26.9937C9.72962 26.9937 9.72962 26.9937 9.72962 26.995C9.76756 26.9622 9.80549 26.9282 9.84343 26.8955C9.88136 26.8627 9.91928 26.8287 9.95721 26.796C9.99515 26.7632 10.0318 26.7292 10.0698 26.6965C10.1077 26.6637 10.1444 26.6297 10.181 26.597C10.2177 26.5642 10.2544 26.5302 10.291 26.4975C10.3277 26.4647 10.3644 26.4307 10.401 26.398C10.4377 26.3652 10.4731 26.3312 10.5098 26.2985C10.5465 26.2657 10.5819 26.2317 10.6173 26.199C10.6527 26.1662 10.6881 26.1322 10.7247 26.0982C10.7601 26.0642 10.7955 26.0315 10.8309 25.9975C10.8664 25.9635 10.9018 25.9307 10.9359 25.8967C10.97 25.8627 11.0054 25.83 11.0396 25.796C11.0737 25.762 11.1091 25.7292 11.1433 25.6952C11.1774 25.6612 11.2115 25.6285 11.2457 25.5945C11.2798 25.5605 11.314 25.5277 11.3468 25.4937C11.3797 25.4597 11.4139 25.427 11.448 25.3929C11.4809 25.3589 11.515 25.3262 11.5479 25.2922C11.5808 25.2582 11.6136 25.2254 11.6465 25.1914C11.6794 25.1574 11.7123 25.1247 11.7439 25.0907C11.7767 25.0567 11.8084 25.0239 11.8412 24.9899C11.8741 24.9559 11.9057 24.9232 11.9373 24.8892C11.9689 24.8552 12.0006 24.8224 12.0322 24.7884C12.0638 24.7544 12.0954 24.7217 12.127 24.6877C12.1586 24.6537 12.189 24.6209 12.2206 24.5869C12.2522 24.5529 12.2825 24.5202 12.3129 24.4861C12.3432 24.4521 12.3748 24.4194 12.4052 24.3854C12.4355 24.3514 12.4659 24.3186 12.4962 24.2846C12.5266 24.2506 12.5569 24.2179 12.586 24.1839C12.6163 24.1511 12.6454 24.1171 12.6758 24.0844C12.7048 24.0516 12.7352 24.0176 12.7643 23.9849C12.7934 23.9521 12.8224 23.9181 12.8515 23.8854C12.8806 23.8526 12.9097 23.8186 12.9388 23.7859C12.9679 23.7531 12.9969 23.7191 13.0247 23.6864C13.0538 23.6537 13.0817 23.6196 13.1095 23.5869C13.1373 23.5542 13.1664 23.5202 13.1942 23.4874C13.222 23.4547 13.2498 23.4207 13.2776 23.3879C13.3055 23.3552 13.3333 23.3212 13.3611 23.2884C13.3889 23.2557 13.4155 23.2217 13.4433 23.1889C13.4711 23.1562 13.4977 23.1222 13.5242 23.0894C13.5508 23.0567 13.5786 23.0227 13.6051 22.9899C13.6317 22.9572 13.6582 22.9232 13.6848 22.8904C13.7114 22.8577 13.7379 22.8237 13.7632 22.7909C13.7885 22.7582 13.815 22.7242 13.8416 22.6914C13.8669 22.6587 13.8934 22.6247 13.9187 22.5919C13.944 22.5592 13.9693 22.5264 13.9958 22.4924C14.0224 22.4584 14.0464 22.427 14.0717 22.3929C14.097 22.3602 14.1223 22.3275 14.1463 22.2934C14.1716 22.2607 14.1956 22.228 14.2209 22.1952C14.2449 22.1625 14.2702 22.1297 14.2943 22.097C14.3183 22.0642 14.3423 22.0315 14.3676 21.9987C14.3929 21.966 14.4156 21.9332 14.4397 21.9005C14.4637 21.8678 14.4877 21.835 14.5105 21.8023C14.5345 21.7695 14.5573 21.7368 14.5813 21.704C14.604 21.6713 14.6281 21.6385 14.6508 21.6058C14.6736 21.573 14.6976 21.5403 14.7204 21.5076C14.7431 21.4748 14.7659 21.4421 14.7887 21.4093C14.8114 21.3766 14.8342 21.3438 14.8557 21.3111C14.8772 21.2783 14.8999 21.2456 14.9227 21.2128C14.9454 21.1801 14.9669 21.1474 14.9884 21.1159C15.0099 21.0831 15.0327 21.0504 15.0542 21.0189C15.0757 20.9861 15.0972 20.9547 15.1187 20.9219C15.1402 20.8892 15.1617 20.8577 15.1832 20.8249C15.2047 20.7922 15.2249 20.7607 15.2464 20.728C15.2679 20.6952 15.2881 20.6637 15.3083 20.631C15.3286 20.5982 15.3501 20.5667 15.3703 20.534C15.3905 20.5013 15.4108 20.4698 15.431 20.437C15.4512 20.4043 15.4714 20.3728 15.4917 20.3413C15.5119 20.3098 15.5321 20.2771 15.5511 20.2456C15.5713 20.2141 15.5903 20.1814 15.6105 20.1499C15.6295 20.1184 15.6497 20.0856 15.6687 20.0542C15.6877 20.0227 15.7079 19.9899 15.7269 19.9584C15.7458 19.927 15.7648 19.8955 15.7838 19.8627C15.8027 19.8312 15.8217 19.7997 15.8407 19.767C15.8596 19.7355 15.8786 19.704 15.8963 19.6725C15.914 19.6411 15.933 19.6096 15.9519 19.5781C15.9696 19.5466 15.9886 19.5151 16.0063 19.4836C16.024 19.4521 16.0417 19.4207 16.0607 19.3892C16.0784 19.3577 16.0961 19.3262 16.1138 19.2947C16.1315 19.2632 16.1492 19.2317 16.1669 19.2003C16.1846 19.1688 16.201 19.1373 16.2187 19.1071C16.2364 19.0756 16.2529 19.0441 16.2706 19.0139C16.2883 18.9836 16.3047 18.9521 16.3212 18.9207C16.3376 18.8892 16.354 18.8589 16.3717 18.8275C16.3882 18.796 16.4046 18.7657 16.4211 18.7343C16.4375 18.7028 16.4539 18.6725 16.4704 18.6423C16.4868 18.6121 16.502 18.5806 16.5184 18.5504C16.5348 18.5202 16.55 18.4887 16.5665 18.4584C16.5829 18.4282 16.5981 18.3967 16.6132 18.3665C16.6284 18.3363 16.6436 18.3048 16.66 18.2746C16.6752 18.2443 16.6904 18.2141 16.7056 18.1826C16.7207 18.1524 16.7359 18.1222 16.7511 18.0919C16.7662 18.0617 16.7814 18.0315 16.7953 18.0013C16.8105 17.971 16.8244 17.9408 16.8396 17.9106C16.8547 17.8804 16.8687 17.8501 16.8826 17.8199C16.8965 17.7897 16.9117 17.7594 16.9256 17.7305C16.9395 17.7003 16.9534 17.67 16.9673 17.6411C16.9812 17.6108 16.9951 17.5819 17.009 17.5516C17.0229 17.5214 17.0368 17.4924 17.0495 17.4622C17.0634 17.432 17.076 17.403 17.0899 17.3728C17.1038 17.3438 17.1165 17.3136 17.1304 17.2846C17.143 17.2557 17.1569 17.2254 17.1696 17.1965C17.1822 17.1675 17.1962 17.1373 17.2088 17.1083C17.2214 17.0793 17.2341 17.0491 17.2467 17.0202C17.2594 16.9912 17.272 16.9622 17.2847 16.9332C17.2973 16.9043 17.31 16.8753 17.3213 16.8463C17.334 16.8174 17.3453 16.7884 17.358 16.7594C17.3706 16.7305 17.382 16.7015 17.3947 16.6725C17.406 16.6436 17.4187 16.6146 17.4301 16.5869C17.4415 16.5579 17.4541 16.529 17.4655 16.5013C17.4768 16.4723 17.4882 16.4446 17.4996 16.4156C17.511 16.3867 17.5224 16.3589 17.5338 16.33C17.5451 16.301 17.5565 16.2733 17.5679 16.2456C17.5793 16.2179 17.5894 16.1889 17.6008 16.1612C17.6122 16.1335 17.6223 16.1045 17.6336 16.0768C17.645 16.0491 17.6551 16.0214 17.6653 15.9924C17.6754 15.9647 17.6868 15.937 17.6969 15.9093C17.707 15.8816 17.7171 15.8539 17.7285 15.8262C17.7386 15.7985 17.7487 15.7708 17.7588 15.7431C17.7689 15.7154 17.7791 15.6877 17.7892 15.66C17.7993 15.6322 17.8094 15.6045 17.8182 15.5781C17.8284 15.5504 17.8372 15.5239 17.8473 15.4962C17.8574 15.4685 17.8663 15.4421 17.8764 15.4144C17.8853 15.3867 17.8954 15.3602 17.9042 15.3338C17.9131 15.3073 17.9232 15.2796 17.9321 15.2531C17.9409 15.2267 17.9498 15.199 17.9599 15.1725C17.9687 15.1461 17.9776 15.1196 17.9864 15.0932C17.9953 15.0668 18.0041 15.0403 18.013 15.0139C18.0218 14.9874 18.0307 14.961 18.0383 14.9345C18.0471 14.9081 18.0547 14.8816 18.0636 14.8552C18.0724 14.8287 18.08 14.8023 18.0888 14.7771C18.0977 14.7506 18.1053 14.7254 18.1129 14.699C18.1204 14.6725 18.1293 14.6474 18.1369 14.6209C18.1445 14.5957 18.1521 14.5693 18.1609 14.5441C18.1698 14.5189 18.1761 14.4924 18.1837 14.4673C18.1913 14.4421 18.1989 14.4169 18.2064 14.3904C18.214 14.364 18.2216 14.34 18.2292 14.3149C18.2368 14.2897 18.2444 14.2645 18.2507 14.2393C18.2583 14.2141 18.2646 14.1889 18.2722 14.1637C18.2798 14.1385 18.2861 14.1134 18.2937 14.0894C18.3013 14.0642 18.3076 14.0403 18.3139 14.0151C18.3202 13.9899 18.3278 13.966 18.3341 13.9408C18.3405 13.9169 18.348 13.8917 18.3544 13.8678C18.3607 13.8438 18.367 13.8186 18.3733 13.7947C18.3797 13.7708 18.386 13.7469 18.3923 13.7217C18.3986 13.6977 18.405 13.6738 18.4113 13.6499C18.4176 13.6259 18.4239 13.602 18.4302 13.5781C18.4366 13.5542 18.4429 13.5302 18.4479 13.5063C18.4543 13.4824 18.4593 13.4597 18.4656 13.4358C18.472 13.4118 18.477 13.3892 18.4833 13.3652C18.4884 13.3413 18.4947 13.3186 18.4998 13.296C18.5048 13.2733 18.5112 13.2494 18.5162 13.2267C18.5213 13.204 18.5276 13.1801 18.5327 13.1574C18.5377 13.1348 18.5428 13.1121 18.5478 13.0894C18.5529 13.0668 18.5579 13.0441 18.563 13.0214C18.5681 12.9987 18.5731 12.9761 18.5782 12.9534C18.5832 12.9307 18.5883 12.9093 18.5934 12.8866C18.5984 12.864 18.6035 12.8426 18.6073 12.8199C18.6123 12.7972 18.6161 12.7758 18.6212 12.7544C18.6262 12.733 18.63 12.7103 18.6351 12.6889C18.6401 12.6675 18.6439 12.6461 18.649 12.6234C18.6528 12.602 18.6578 12.5806 18.6616 12.5592C18.6654 12.5378 18.6705 12.5164 18.6743 12.495C18.6781 12.4736 18.6831 12.4521 18.6869 12.432C18.6907 12.4106 18.6945 12.3904 18.6996 12.369C18.7034 12.3476 18.7072 12.3275 18.711 12.306C18.7147 12.2859 18.7185 12.2645 18.7223 12.2443C18.7261 12.2242 18.7299 12.2028 18.7337 12.1826C18.7375 12.1625 18.7413 12.1423 18.7451 12.1222C18.7489 12.102 18.7527 12.0819 18.7552 12.0617C18.7577 12.0416 18.7615 12.0214 18.7653 12.0025C18.7691 11.9824 18.7716 11.9635 18.7754 11.9433C18.7792 11.9232 18.7818 11.9043 18.7855 11.8841C18.7893 11.8652 18.7919 11.8451 18.7944 11.8262C18.7969 11.8073 18.8007 11.7872 18.8033 11.7683C18.8058 11.7494 18.8096 11.7305 18.8121 11.7116C18.8146 11.6927 18.8184 11.6738 18.821 11.6549C18.8235 11.636 18.826 11.6171 18.8298 11.5995C18.8323 11.5806 18.8349 11.563 18.8374 11.5441C18.8399 11.5252 18.8424 11.5076 18.845 11.4887C18.8475 11.471 18.85 11.4521 18.8526 11.4345C18.8551 11.4169 18.8576 11.3992 18.8601 11.3804C18.8627 11.3615 18.8652 11.3451 18.8677 11.3275C18.8703 11.3098 18.8728 11.2922 18.8741 11.2746C18.8766 11.2569 18.8791 11.2393 18.8804 11.2229C18.8816 11.2065 18.8842 11.1889 18.8867 11.1713C18.8892 11.1537 18.8905 11.1373 18.893 11.1209C18.8956 11.1045 18.8968 11.0869 18.8994 11.0705C18.9019 11.0542 18.9031 11.0378 18.9057 11.0214C18.9069 11.005 18.9095 10.9887 18.9107 10.9723C18.912 10.9559 18.9145 10.9395 18.9158 10.9244C18.9171 10.9081 18.9196 10.8929 18.9208 10.8766C18.9221 10.8602 18.9246 10.8451 18.9259 10.83C18.9272 10.8149 18.9297 10.7985 18.931 10.7834C18.9322 10.7683 18.9335 10.7531 18.936 10.738C18.9373 10.7229 18.9385 10.7078 18.9398 10.6927C18.9411 10.6776 18.9423 10.6625 18.9436 10.6486C18.9449 10.6348 18.9461 10.6196 18.9474 10.6045C18.9487 10.5894 18.9499 10.5756 18.9512 10.5617C18.9512 10.5479 18.9537 10.5327 18.955 10.5189C18.955 10.505 18.9575 10.4912 18.9588 10.4773C18.9588 10.4635 18.9613 10.4496 18.9626 10.4358C18.9626 10.4219 18.9651 10.4081 18.9651 10.3955C18.9651 10.3816 18.9676 10.369 18.9676 10.3552C18.9676 10.3413 18.9689 10.3287 18.9702 10.3161C18.9702 10.3035 18.9714 10.2897 18.9727 10.2771C18.9739 10.2645 18.974 10.2519 18.9752 10.2393C18.9752 10.2267 18.9765 10.2141 18.9777 10.2015C18.9777 10.1889 18.979 10.1763 18.9803 10.165C18.9803 10.1524 18.9815 10.1411 18.9828 10.1285C18.9841 10.1159 18.9841 10.1045 18.9853 10.0932C18.9853 10.0819 18.9853 10.0705 18.9866 10.0579C18.9879 10.0453 18.9866 10.0353 18.9879 10.0239C18.9879 10.0126 18.9879 10.0013 18.9891 9.98992C18.9891 9.97859 18.9891 9.96852 18.9904 9.95718C18.9904 9.94585 18.9904 9.93577 18.9917 9.92569C18.9917 9.91562 18.9917 9.90428 18.9917 9.89421C18.9917 9.88413 18.9917 9.87405 18.9917 9.86398C18.9917 9.8539 18.9917 9.84383 18.9917 9.83375C18.9917 9.82368 18.9917 9.8136 18.9917 9.80478C18.9917 9.79471 18.9917 9.7859 18.9917 9.77582C18.9917 9.767 18.9917 9.75693 18.9917 9.74811C18.9917 9.7393 18.9917 9.73048 18.9917 9.72166C18.9917 9.71284 18.9917 9.70403 18.9917 9.69521C18.9917 9.6864 18.9917 9.67758 18.9917 9.67003C18.9917 9.66121 18.9917 9.65365 18.9917 9.64484C18.9917 9.63602 18.9917 9.62846 18.9917 9.62091C18.9917 9.61335 18.9917 9.60579 18.9917 9.59698C18.9917 9.58816 18.9917 9.58186 18.9917 9.57431C18.9917 9.56675 18.9917 9.55919 18.9917 9.5529C18.9917 9.54534 18.9917 9.53904 18.9917 9.53149C18.9917 9.52519 18.9917 9.51763 18.9917 9.51134C18.9917 9.50504 18.9917 9.49874 18.9917 9.49118C18.9917 9.48489 18.9917 9.47859 18.9917 9.47229C18.9917 9.466 18.9917 9.4597 18.9917 9.45466C18.9917 9.44836 18.9917 9.44333 18.9917 9.43703C18.9917 9.43199 18.9917 9.42569 18.9917 9.42066C18.9917 9.41562 18.9917 9.41058 18.9917 9.40428C18.9917 9.39924 18.9917 9.39421 18.9917 9.38917C18.9917 9.38413 18.9917 9.37909 18.9917 9.37531C18.9917 9.37028 18.9917 9.3665 18.9917 9.36146C18.9917 9.35768 18.9917 9.35264 18.9917 9.34887C18.9917 9.34509 18.9917 9.34131 18.9917 9.33753C18.9917 9.33375 18.9917 9.32998 18.9917 9.3262C18.9917 9.32242 18.9917 9.31864 18.9917 9.31612C18.9917 9.31234 18.9917 9.30982 18.9917 9.30605C18.9917 9.30227 18.9917 9.29975 18.9917 9.29723C18.9917 9.29471 18.9917 9.29219 18.9917 9.28967C18.9917 9.28715 18.9917 9.28463 18.9917 9.28212C18.9917 9.2796 18.9917 9.27834 18.9917 9.27582C18.9917 9.2733 18.9917 9.27204 18.9917 9.27078C18.9917 9.26952 18.9917 9.267 18.9917 9.26574C18.9917 9.26448 18.9917 9.26322 18.9917 9.26196V9.25945C18.9917 9.25945 18.9917 9.25818 18.9917 9.25692C18.9917 9.25692 18.9917 9.25693 18.9917 9.25567L18.9992 9.22544Z" fill="#B0864A"/>
</svg>
