<svg width="24" height="24" viewBox="0 0 24 24" fill="none" xmlns="http://www.w3.org/2000/svg">
<path d="M12 21.9328C11.7314 21.9337 11.4663 21.8716 11.2259 21.7517C10.9856 21.6317 10.7767 21.457 10.616 21.2418L5.555 14.4998C4.71761 13.3189 4.22108 11.9305 4.1197 10.4864C4.01831 9.04229 4.31599 7.59812 4.98017 6.31182C5.64434 5.02552 6.64944 3.94662 7.88555 3.19313C9.12165 2.43964 10.5411 2.04056 11.9888 2.03955C13.4365 2.03854 14.8565 2.43563 16.0937 3.1874C17.3308 3.93916 18.3374 5.01665 19.0034 6.30202C19.6694 7.58739 19.9691 9.03115 19.8697 10.4754C19.7703 11.9196 19.2757 13.3087 18.44 14.4908L13.385 21.2398C13.2244 21.4555 13.0154 21.6306 12.7749 21.751C12.5344 21.8713 12.269 21.9336 12 21.9328ZM11.992 3.06578C10.3017 3.05952 8.66957 3.68304 7.414 4.81478C6.15421 5.93936 5.35128 7.48744 5.15772 9.16502C4.96415 10.8426 5.39342 12.5329 6.364 13.9148L11.415 20.6418C11.483 20.7324 11.5712 20.806 11.6725 20.8567C11.7739 20.9074 11.8857 20.9338 11.999 20.9338C12.1127 20.9341 12.2248 20.9079 12.3266 20.8572C12.4283 20.8065 12.5168 20.7327 12.585 20.6418L17.629 13.9078C18.3172 12.9339 18.7402 11.7978 18.8565 10.611C18.9728 9.42415 18.7783 8.22751 18.2922 7.13859C17.8061 6.04967 17.0451 5.10594 16.0839 4.40012C15.1228 3.69429 13.9945 3.25065 12.81 3.11278C12.5385 3.08116 12.2654 3.06546 11.992 3.06578Z" fill="#B0864A"/>
<path d="M12 12.5C11.5055 12.5 11.0222 12.3534 10.6111 12.0787C10.2 11.804 9.87952 11.4135 9.6903 10.9567C9.50108 10.4999 9.45157 9.99723 9.54804 9.51228C9.6445 9.02732 9.8826 8.58187 10.2322 8.23223C10.5819 7.8826 11.0273 7.6445 11.5123 7.54804C11.9972 7.45157 12.4999 7.50108 12.9567 7.6903C13.4135 7.87952 13.804 8.19995 14.0787 8.61108C14.3534 9.0222 14.5 9.50555 14.5 10C14.5 10.663 14.2366 11.2989 13.7678 11.7678C13.2989 12.2366 12.663 12.5 12 12.5ZM12 8.5C11.7033 8.5 11.4133 8.58797 11.1666 8.7528C10.92 8.91762 10.7277 9.15189 10.6142 9.42598C10.5007 9.70007 10.4709 10.0017 10.5288 10.2926C10.5867 10.5836 10.7296 10.8509 10.9393 11.0607C11.1491 11.2704 11.4164 11.4133 11.7074 11.4712C11.9983 11.5291 12.2999 11.4994 12.574 11.3858C12.8481 11.2723 13.0824 11.08 13.2472 10.8334C13.412 10.5867 13.5 10.2967 13.5 10C13.5 9.60218 13.342 9.22065 13.0607 8.93934C12.7794 8.65804 12.3978 8.5 12 8.5Z" fill="#B0864A"/>
</svg>
